<?xml version="1.0" encoding="utf-8"?>
<!-- Generator: Adobe Illustrator 19.0.0, SVG Export Plug-In . SVG Version: 6.00 Build 0)  -->
<svg version="1.1" id="Ebene_1" xmlns="http://www.w3.org/2000/svg" xmlns:xlink="http://www.w3.org/1999/xlink" x="0px" y="0px"
	 viewBox="-300 241.9 241 112.4" style="enable-background:new -300 241.9 241 112.4;" xml:space="preserve">
<style type="text/css">
	.st0{fill:#8E969C;}
	.st1{fill:#52AE32;}
</style>
<g>
	<path class="st0" d="M-285.9,337.6h-1.9l-1.6,8.4c-0.1,0.3-0.2,1-0.3,1.5c-0.1-0.5-0.2-1.2-0.3-1.5l-2-8.4h-1.7l-2.1,8.3
		c-0.1,0.4-0.3,1.3-0.4,1.7c-0.1-0.4-0.2-1.3-0.3-1.7l-1.5-8.3h-2l2.7,13h1.9l2.1-8.4c0.1-0.4,0.3-1.4,0.4-1.7
		c0.1,0.3,0.3,1.3,0.4,1.7l2,8.4h2L-285.9,337.6L-285.9,337.6z"/>
	<path class="st0" d="M-276.8,345.6c0-2.6-1.3-4.9-4.1-4.9c-2.5,0-4.3,1.8-4.3,5.1c0,3.2,1.9,5.1,4.2,5.1c1.5,0,2.5-0.5,3.4-1.3
		l-1.1-1.2c-0.7,0.5-1.3,0.8-2.1,0.8c-1.2,0-2.3-0.8-2.5-2.7h6.5C-276.8,346.3-276.8,345.9-276.8,345.6L-276.8,345.6z M-278.7,344.9
		h-4.5c0.2-1.6,1-2.5,2.2-2.5C-279.4,342.4-278.8,343.5-278.7,344.9L-278.7,344.9z"/>
	<path class="st0" d="M-267.7,348c0-1.8-1.1-2.4-3.3-3.3c-1.5-0.6-1.8-0.9-1.8-1.4s0.4-0.9,1.3-0.9s1.7,0.3,2.5,0.8l0.8-1.5
		c-0.9-0.6-2.1-1.1-3.3-1.1c-2,0-3.3,0.9-3.3,2.7c0,1.5,0.8,2.3,2.9,3.1c1.4,0.5,2.3,0.9,2.3,1.6c0,0.7-0.6,1.1-1.8,1.1
		c-0.9,0-1.9-0.3-2.9-1l-0.9,1.5c1,0.7,2.4,1.2,3.7,1.2C-269.5,350.9-267.7,350.2-267.7,348L-267.7,348z"/>
	<path class="st0" d="M-260.6,348.7c-0.4,0.2-0.9,0.4-1.4,0.4c-0.7,0-1-0.3-1-1.2v-5.3h2.4v-1.7h-2.4v-3.8l-1.9,1v2.8h-1.4v1.8h1.4
		v5.6c0,1.8,0.8,2.6,2.2,2.6c0.8,0,1.4-0.2,1.9-0.4L-260.6,348.7L-260.6,348.7z"/>
	<path class="st0" d="M-253.9,339v-1.7c-0.4-0.1-1-0.2-1.5-0.2c-1.4,0-2.5,0.7-2.5,2.5v1.3h-1.3v1.8h1.3v8h1.9v-8h1.8v-1.8h-1.8
		v-1.1c0-0.7,0.3-1,0.9-1C-254.6,338.8-254.3,338.9-253.9,339L-253.9,339z"/>
	<path class="st0" d="M-244.9,350.7V344c0-2.2-1.5-3.3-3.7-3.3c-1.4,0-2.4,0.3-3.4,0.9l0.7,1.5c0.8-0.4,1.5-0.6,2.6-0.6
		c1.2,0,1.8,0.6,1.8,1.7v0.7c-0.5-0.2-1.3-0.4-2.2-0.4c-2.2,0-3.9,1-3.9,3.2c0,2.4,1.8,3.3,3.4,3.3c1.1,0,2-0.5,2.7-1.2v1h2V350.7z
		 M-246.7,347.9c-0.4,0.6-1.3,1.2-2.4,1.2c-1.3,0-1.9-0.7-1.9-1.6c0-0.9,0.8-1.5,2-1.5c1,0,1.7,0.2,2.2,0.4v1.5H-246.7z"/>
	<polygon class="st0" points="-240.1,350.7 -240.1,337.1 -242,338.1 -242,350.7 	"/>
	<path class="st0" d="M-229.2,345.6c0-2.6-1.3-4.9-4.1-4.9c-2.5,0-4.3,1.8-4.3,5.1c0,3.2,1.9,5.1,4.2,5.1c1.5,0,2.5-0.5,3.4-1.3
		l-1.1-1.2c-0.7,0.5-1.3,0.8-2.1,0.8c-1.2,0-2.3-0.8-2.5-2.7h6.5C-229.3,346.3-229.2,345.9-229.2,345.6L-229.2,345.6z M-231.2,344.9
		h-4.5c0.2-1.6,1-2.5,2.2-2.5C-231.9,342.4-231.3,343.5-231.2,344.9L-231.2,344.9z"/>
	<path class="st0" d="M-219,350.7v-5.6c0-2.9-1.2-4.4-3.5-4.4c-1,0-2,0.4-2.5,1.1v-0.9h-1.9v9.8h1.9V345c0-1.6,0.7-2.5,2-2.5
		s2,0.7,2,2.7v5.5H-219L-219,350.7z"/>
	<polygon class="st0" points="-212,344.8 -212,342.9 -216.6,342.9 -216.6,344.8 	"/>
	<polygon class="st0" points="-200.8,350.7 -200.8,348.8 -207.3,348.8 -207.3,337.6 -209.2,337.6 -209.2,350.7 	"/>
	<path class="st0" d="M-196.1,338.4c0-0.7-0.6-1.2-1.2-1.2c-0.7,0-1.2,0.6-1.2,1.2c0,0.7,0.6,1.2,1.2,1.2
		C-196.7,339.6-196.1,339.1-196.1,338.4L-196.1,338.4z M-196.4,350.7v-9.8h-1.9v9.8H-196.4L-196.4,350.7z"/>
	<path class="st0" d="M-185.3,345.9c0-3.7-1.7-5.3-3.8-5.3c-1,0-1.8,0.5-2.6,1.1v-0.8h-1.9v13.4l1.9-1v-3.5c0.5,0.6,1.5,1.1,2.5,1.1
		C-187.1,350.9-185.3,349.3-185.3,345.9L-185.3,345.9z M-187.2,346c0,2.1-0.7,3.1-2.1,3.1c-1,0-1.9-0.7-2.3-1.3v-4.1
		c0.5-0.6,1.3-1.2,2.2-1.2C-188,342.5-187.2,343.5-187.2,346L-187.2,346z"/>
	<path class="st0" d="M-174.7,345.9c0-3.7-1.7-5.3-3.8-5.3c-1,0-1.8,0.5-2.6,1.1v-0.8h-1.9v13.4l1.9-1v-3.5c0.5,0.6,1.5,1.1,2.5,1.1
		C-176.5,350.9-174.7,349.3-174.7,345.9L-174.7,345.9z M-176.6,346c0,2.1-0.7,3.1-2.1,3.1c-1,0-1.9-0.7-2.3-1.3v-4.1
		c0.5-0.6,1.3-1.2,2.2-1.2C-177.4,342.5-176.6,343.5-176.6,346L-176.6,346z"/>
	<path class="st0" d="M-164.3,345.6c0-2.6-1.3-4.9-4.1-4.9c-2.5,0-4.3,1.8-4.3,5.1c0,3.2,1.9,5.1,4.2,5.1c1.5,0,2.5-0.5,3.4-1.3
		l-1.1-1.2c-0.7,0.5-1.3,0.8-2.1,0.8c-1.2,0-2.3-0.8-2.5-2.7h6.5C-164.4,346.3-164.3,345.9-164.3,345.6L-164.3,345.6z M-166.3,344.9
		h-4.5c0.2-1.6,1-2.5,2.2-2.5C-167,342.4-166.4,343.5-166.3,344.9L-166.3,344.9z"/>
	<path class="st0" d="M-289,327.8l-4.7-8.3l3.8-4.7h-2.2l-3.9,4.8c-0.4,0.5-1.3,1.6-1.5,2c0-0.4,0-1.8,0-2.3v-4.5h-1.8v13h1.9V324
		l2.4-2.9l3.7,6.7H-289L-289,327.8z"/>
	<path class="st0" d="M-280.1,327.8v-6.7c0-2.2-1.5-3.3-3.7-3.3c-1.4,0-2.4,0.3-3.4,0.9l0.7,1.5c0.8-0.4,1.5-0.6,2.6-0.6
		c1.2,0,1.8,0.6,1.8,1.7v0.6c-0.5-0.2-1.3-0.4-2.2-0.4c-2.2,0-3.9,1-3.9,3.2c0,2.4,1.8,3.3,3.4,3.3c1.1,0,2-0.5,2.7-1.2v1H-280.1
		L-280.1,327.8z M-282,325.1c-0.4,0.6-1.3,1.2-2.4,1.2c-1.3,0-1.9-0.7-1.9-1.6s0.8-1.5,2-1.5c1,0,1.7,0.2,2.2,0.4v1.5H-282z"/>
	<path class="st0" d="M-270.5,325.1c0-1.8-1.1-2.4-3.3-3.3c-1.5-0.6-1.8-0.9-1.8-1.4s0.4-0.9,1.3-0.9c0.9,0,1.7,0.3,2.5,0.8l0.8-1.5
		c-0.9-0.6-2.1-1.1-3.3-1.1c-2,0-3.3,0.9-3.3,2.7c0,1.5,0.8,2.3,2.9,3.1c1.4,0.5,2.3,0.9,2.3,1.6c0,0.7-0.6,1.1-1.8,1.1
		c-0.9,0-1.9-0.3-2.9-1l-0.9,1.5c1,0.7,2.4,1.2,3.7,1.2C-272.2,328-270.5,327.3-270.5,325.1L-270.5,325.1z"/>
	<path class="st0" d="M-261.4,325.1c0-1.8-1.1-2.4-3.3-3.3c-1.5-0.6-1.8-0.9-1.8-1.4s0.4-0.9,1.3-0.9c0.9,0,1.7,0.3,2.5,0.8l0.8-1.5
		c-0.9-0.6-2.1-1.1-3.3-1.1c-2,0-3.3,0.9-3.3,2.7c0,1.5,0.8,2.3,2.9,3.1c1.4,0.5,2.3,0.9,2.3,1.6c0,0.7-0.6,1.1-1.8,1.1
		c-0.9,0-1.9-0.3-2.9-1l-0.9,1.5c1,0.7,2.4,1.2,3.7,1.2C-263.1,328-261.4,327.3-261.4,325.1L-261.4,325.1z"/>
	<path class="st0" d="M-251.2,322.7c0-2.6-1.3-4.9-4.1-4.9c-2.5,0-4.3,1.8-4.3,5.1c0,3.2,1.9,5.1,4.2,5.1c1.5,0,2.5-0.5,3.4-1.3
		l-1.1-1.2c-0.7,0.5-1.3,0.8-2.1,0.8c-1.2,0-2.3-0.8-2.5-2.7h6.5C-251.2,323.4-251.2,323.1-251.2,322.7L-251.2,322.7z M-253.1,322
		h-4.5c0.2-1.6,1-2.5,2.2-2.5C-253.8,319.6-253.2,320.7-253.1,322L-253.1,322z"/>
	<path class="st0" d="M-240.9,327.8v-5.6c0-2.9-1.2-4.4-3.5-4.4c-1,0-2,0.4-2.5,1.1V318h-1.9v9.8h1.9v-5.7c0-1.6,0.7-2.5,2-2.5
		c1.3,0,2,0.7,2,2.7v5.5H-240.9L-240.9,327.8z"/>
	<path class="st0" d="M-231.3,315.6c0-0.7-0.6-1.3-1.2-1.3c-0.7,0-1.3,0.6-1.3,1.3s0.6,1.2,1.3,1.2
		C-231.9,316.8-231.3,316.3-231.3,315.6L-231.3,315.6z M-235,315.6c0-0.7-0.6-1.3-1.2-1.3c-0.7,0-1.3,0.6-1.3,1.3s0.6,1.2,1.3,1.2
		S-235,316.3-235,315.6L-235,315.6z M-230.7,327.8v-6.7c0-2.2-1.5-3.3-3.7-3.3c-1.4,0-2.4,0.3-3.4,0.9l0.7,1.5
		c0.8-0.4,1.5-0.6,2.6-0.6c1.2,0,1.8,0.6,1.8,1.7v0.6c-0.5-0.2-1.3-0.4-2.2-0.4c-2.2,0-3.9,1-3.9,3.2c0,2.4,1.8,3.3,3.4,3.3
		c1.1,0,2-0.5,2.7-1.2v1H-230.7L-230.7,327.8z M-232.6,325.1c-0.4,0.6-1.3,1.2-2.4,1.2c-1.3,0-1.9-0.7-1.9-1.6s0.8-1.5,2-1.5
		c1,0,1.7,0.2,2.2,0.4v1.5H-232.6z"/>
	<path class="st0" d="M-222.1,318.3c-0.4-0.3-0.9-0.4-1.7-0.4c-1,0-1.8,0.5-2.2,1.1v-0.9h-1.9v9.8h1.9v-5.6c0-1.7,0.7-2.5,1.9-2.5
		c0.6,0,1.1,0.1,1.5,0.4L-222.1,318.3L-222.1,318.3z"/>
	<path class="st0" d="M-213.3,327.8v-1.7h-3.5c-0.5,0-1.4,0-1.8,0c0.3-0.3,0.8-0.9,1.2-1.4l4.1-5.1v-1.5h-7.2v1.7h3.2
		c0.5,0,1.4,0,1.8,0c-0.3,0.3-0.8,0.9-1.2,1.4l-4.2,5.1v1.6h7.6V327.8z"/>
	<path class="st0" d="M-205.8,325.9c-0.4,0.2-0.9,0.4-1.4,0.4c-0.7,0-1-0.3-1-1.2v-5.3h2.4V318h-2.4v-3.8l-1.9,1v2.8h-1.4v1.8h1.4
		v5.6c0,1.8,0.8,2.6,2.2,2.6c0.8,0,1.4-0.2,1.9-0.4L-205.8,325.9L-205.8,325.9z"/>
	<polygon class="st0" points="-201.1,327.8 -201.1,314.2 -203.1,315.3 -203.1,327.8 	"/>
	<path class="st0" d="M-195.9,315.6c0-0.7-0.6-1.2-1.2-1.2c-0.7,0-1.2,0.6-1.2,1.2c0,0.7,0.6,1.2,1.2,1.2
		C-196.5,316.8-195.9,316.2-195.9,315.6L-195.9,315.6z M-196.2,327.8V318h-1.9v9.8H-196.2L-196.2,327.8z"/>
	<path class="st0" d="M-186,319.5c-0.9-1.1-2-1.7-3.5-1.7c-2.4,0-4.3,1.9-4.3,5.1c0,3.1,1.8,5.1,4.2,5.1c1.8,0,2.7-0.9,3.5-1.8
		l-1.2-1.2c-0.8,0.8-1.3,1.2-2.2,1.2c-1.5,0-2.3-1.4-2.3-3.3c0-2,0.9-3.2,2.3-3.2c0.9,0,1.6,0.4,2.4,1.2L-186,319.5L-186,319.5z"/>
	<path class="st0" d="M-175.7,327.8v-5.6c0-2.9-1.2-4.4-3.5-4.4c-1,0-2,0.4-2.5,1.1v-4.7l-1.9,1v12.6h1.9v-5.7c0-1.6,0.7-2.5,2-2.5
		s2,0.7,2,2.7v5.5H-175.7L-175.7,327.8z"/>
	<path class="st0" d="M-165,322.7c0-2.6-1.3-4.9-4.1-4.9c-2.5,0-4.3,1.8-4.3,5.1c0,3.2,1.9,5.1,4.2,5.1c1.5,0,2.5-0.5,3.4-1.3
		l-1.1-1.2c-0.7,0.5-1.3,0.8-2.1,0.8c-1.2,0-2.3-0.8-2.5-2.7h6.5C-165,323.4-165,323.1-165,322.7L-165,322.7z M-166.9,322h-4.5
		c0.2-1.6,1-2.5,2.2-2.5C-167.7,319.6-167,320.7-166.9,322L-166.9,322z"/>
	<path class="st0" d="M-147.1,314.8h-2.1l-2.7,8.3c-0.2,0.8-0.6,1.9-0.7,2.4c-0.1-0.5-0.5-1.6-0.7-2.4l-2.7-8.3h-2.1l4.5,13h2.1
		L-147.1,314.8L-147.1,314.8z"/>
	<path class="st0" d="M-139.2,322.7c0-2.6-1.3-4.9-4.1-4.9c-2.5,0-4.3,1.8-4.3,5.1c0,3.2,1.9,5.1,4.2,5.1c1.5,0,2.5-0.5,3.4-1.3
		l-1.1-1.2c-0.7,0.5-1.3,0.8-2.1,0.8c-1.2,0-2.3-0.8-2.5-2.7h6.5C-139.2,323.4-139.2,323.1-139.2,322.7L-139.2,322.7z M-141.1,322
		h-4.5c0.2-1.6,1-2.5,2.2-2.5C-141.8,319.6-141.2,320.7-141.1,322L-141.1,322z"/>
	<path class="st0" d="M-131,318.3c-0.4-0.3-0.9-0.4-1.7-0.4c-1,0-1.8,0.5-2.2,1.1v-0.9h-1.9v9.8h1.9v-5.6c0-1.7,0.7-2.5,1.9-2.5
		c0.6,0,1.1,0.1,1.5,0.4L-131,318.3L-131,318.3z"/>
	<path class="st0" d="M-121.5,322.7c0-2.6-1.3-4.9-4.1-4.9c-2.5,0-4.3,1.8-4.3,5.1c0,3.2,1.9,5.1,4.2,5.1c1.5,0,2.5-0.5,3.4-1.3
		l-1.1-1.2c-0.7,0.5-1.3,0.8-2.1,0.8c-1.2,0-2.3-0.8-2.5-2.7h6.5C-121.5,323.4-121.5,323.1-121.5,322.7L-121.5,322.7z M-123.4,322
		h-4.6c0.2-1.6,1-2.5,2.2-2.5C-124.2,319.6-123.5,320.7-123.4,322L-123.4,322z"/>
	<path class="st0" d="M-116.8,315.6c0-0.7-0.6-1.2-1.2-1.2c-0.7,0-1.2,0.6-1.2,1.2c0,0.7,0.6,1.2,1.2,1.2
		C-117.4,316.8-116.8,316.2-116.8,315.6L-116.8,315.6z M-117.1,327.8V318h-1.9v9.8H-117.1L-117.1,327.8z"/>
	<path class="st0" d="M-106.3,327.8v-5.6c0-2.9-1.2-4.4-3.5-4.4c-1,0-2,0.4-2.5,1.1V318h-1.9v9.8h1.9v-5.7c0-1.6,0.7-2.5,2-2.5
		s2,0.7,2,2.7v5.5H-106.3L-106.3,327.8z"/>
	<path class="st0" d="M-101.3,315.6c0-0.7-0.6-1.2-1.2-1.2c-0.7,0-1.2,0.6-1.2,1.2c0,0.7,0.6,1.2,1.2,1.2
		C-101.8,316.8-101.3,316.2-101.3,315.6L-101.3,315.6z M-101.6,327.8V318h-1.9v9.8H-101.6L-101.6,327.8z"/>
	<path class="st0" d="M-90.8,326.9V318h-1.9v0.9c-0.5-0.6-1.5-1.1-2.4-1.1c-2,0-3.9,1.6-3.9,4.9c0,3.7,1.7,5.3,3.8,5.3
		c1,0,1.8-0.5,2.5-1.1v0.2c0,2-0.6,2.8-3.4,2.9l0.7,1.5C-91.9,331.3-90.8,329.9-90.8,326.9L-90.8,326.9z M-92.7,325
		c-0.5,0.6-1.3,1.2-2.2,1.2c-1.4,0-2.2-1.1-2.2-3.5c0-2.1,0.7-3.1,2.1-3.1c1,0,1.9,0.7,2.3,1.3L-92.7,325L-92.7,325z"/>
	<path class="st0" d="M-80.2,327.8V318h-1.9v5.7c0,1.6-0.7,2.5-2,2.5s-2-0.7-2-2.7V318H-88v5.6c0,2.9,1.2,4.4,3.5,4.4
		c1,0,2-0.4,2.5-1.1v0.9H-80.2L-80.2,327.8z"/>
	<path class="st0" d="M-69.5,327.8v-5.6c0-2.9-1.2-4.4-3.5-4.4c-1,0-2,0.4-2.5,1.1V318h-1.9v9.8h1.9v-5.7c0-1.6,0.7-2.5,2-2.5
		s2,0.7,2,2.7v5.5H-69.5L-69.5,327.8z"/>
	<path class="st0" d="M-59,326.9V318h-1.9v0.9c-0.5-0.6-1.5-1.1-2.4-1.1c-2,0-3.9,1.6-3.9,4.9c0,3.7,1.7,5.3,3.8,5.3
		c1,0,1.8-0.5,2.5-1.1v0.2c0,2-0.6,2.8-3.4,2.9l0.7,1.5C-60.1,331.3-59,329.9-59,326.9L-59,326.9z M-60.9,325
		c-0.5,0.6-1.3,1.2-2.2,1.2c-1.4,0-2.2-1.1-2.2-3.5c0-2.1,0.7-3.1,2.1-3.1c1,0,1.9,0.7,2.3,1.3L-60.9,325L-60.9,325z"/>
	<polygon class="st0" points="-84,241.9 -99.9,241.9 -99.9,301.7 -59,301.7 -59,287.9 -84,287.9 	"/>
	<polygon class="st0" points="-195.1,278.8 -186.8,250.7 -176.4,288 -175.9,288 -162.7,241.9 -162.4,241.9 -146.2,241.9 -133.3,288 
		-132.8,288 -119.6,241.9 -103.1,241.9 -120.6,301.7 -145.5,301.7 -154.4,270.1 -163.7,301.7 -188.6,301.7 	"/>
	<polygon class="st1" points="-206.7,301.7 -231.7,301.7 -247.3,246.6 -264.9,271.3 -242.1,301.7 -261.9,301.7 -278.6,278.3 
		-283.4,278.3 -283.4,301.7 -299.3,301.7 -299.3,241.9 -283.4,241.9 -283.4,264.4 -278.6,264.4 -263.2,241.9 -248.6,241.9 
		-243.9,241.9 -232.4,241.9 -219.5,288 -219,288 -205.8,241.9 -189.3,241.9 	"/>
</g>
</svg>
