<?xml version="1.0" encoding="utf-8"?>
<!-- Generator: Adobe Illustrator 18.1.0, SVG Export Plug-In . SVG Version: 6.00 Build 0)  -->
<svg version="1.1" id="Ebene_1" xmlns="http://www.w3.org/2000/svg" xmlns:xlink="http://www.w3.org/1999/xlink" x="0px" y="0px"
	 viewBox="0 0 147 52" enable-background="new 0 0 147 52" xml:space="preserve">
<g>
	<g>
		<g>
			<g>
				
					<linearGradient id="SVGID_1_" gradientUnits="userSpaceOnUse" x1="118.2624" y1="28.4166" x2="124.7054" y2="37.3657" gradientTransform="matrix(1 0 0 -1 0 54)">
					<stop  offset="4.761900e-03" style="stop-color:#0A69B3"/>
					<stop  offset="1" style="stop-color:#209DD9"/>
				</linearGradient>
				<path fill="url(#SVGID_1_)" d="M108.4,32.2c0-12.2,6.9-22.2,21.2-30.6c-3.1,5.4-4.3,10.9-3.7,16.5c0.3,2.8,0.9,5.5,1.6,8.2
					c0.2,0.8,0.4,1.5,0.5,2.3c-1-0.3-2.1-0.5-3.1-0.5c-1.9,0-3.8,0.5-5.4,1c-0.7,0.2-1.4,0.5-2.1,0.7
					C114.4,30.9,111.5,31.8,108.4,32.2z"/>
				<path fill="#FFFFFF" d="M128.1,3.2c-2.4,4.9-3.3,9.9-2.8,15c0.3,2.8,0.9,5.6,1.6,8.2c0.1,0.4,0.2,0.9,0.3,1.4
					c-0.8-0.2-1.6-0.3-2.4-0.3c-2,0-3.9,0.5-5.6,1.1c-0.7,0.2-1.4,0.5-2.1,0.7c-2.8,0.9-5.4,1.8-8.3,2.2
					C109.1,20.2,115.3,11.1,128.1,3.2 M131.2,0c-12.7,7-23.7,16.9-23.4,32.8c4.2-0.4,7.9-1.8,11.9-3.1c1.8-0.6,3.5-1,5.2-1
					c1.3,0,2.6,0.2,3.9,0.8c-0.8-3.8-1.9-7.6-2.3-11.4C125.8,11.4,127.6,5.6,131.2,0L131.2,0z"/>
			</g>
		</g>
		<g>
			<g>
				
					<linearGradient id="SVGID_2_" gradientUnits="userSpaceOnUse" x1="115.9452" y1="21.8205" x2="127.2421" y2="28.4458" gradientTransform="matrix(1 0 0 -1 0 54)">
					<stop  offset="4.761900e-03" style="stop-color:#004A98"/>
					<stop  offset="1" style="stop-color:#0A69B3"/>
				</linearGradient>
				<path fill="url(#SVGID_2_)" d="M128.4,36.3c-2.3-1.8-4.9-2.3-8.2-2.5c-0.7,0-1.5-0.1-2.2-0.1c-3.2-0.1-6.2-0.2-9.3-1
					c4.2-11.4,14.1-18.4,30.4-21.2c-4.7,4-7.7,8.7-9.1,14.2c-0.7,2.7-1,5.5-1.3,8.2C128.6,34.7,128.5,35.5,128.4,36.3z"/>
				<path fill="#FFFFFF" d="M137.2,12.4c-4,3.8-6.5,8.1-7.8,13.1c-0.7,2.7-1,5.5-1.3,8.3c-0.1,0.5-0.1,0.9-0.2,1.4
					c-2.5-1.6-5.3-1.9-7.7-2c-0.7,0-1.5-0.1-2.2-0.1c-2.9-0.1-5.7-0.2-8.5-0.8C113.5,21.8,122.4,15.4,137.2,12.4 M141.2,10.6
					c-14.3,2.1-28.1,7.6-33.2,22.6c4.1,1.1,8,1,12.2,1.2c3.3,0.2,6.1,0.6,8.6,3c0.5-3.8,0.8-7.8,1.8-11.5
					C132.2,19.4,135.9,14.5,141.2,10.6L141.2,10.6z"/>
			</g>
		</g>
		<g>
			<g>
				
					<linearGradient id="SVGID_3_" gradientUnits="userSpaceOnUse" x1="120.9457" y1="15.1378" x2="126.6502" y2="24.9426" gradientTransform="matrix(1 0 0 -1 0 54)">
					<stop  offset="4.761900e-03" style="stop-color:#302D7F"/>
					<stop  offset="1" style="stop-color:#004A98"/>
				</linearGradient>
				<path fill="url(#SVGID_3_)" d="M126.2,43.5c-1.6-2.5-3.8-3.9-6.9-5.1c-0.7-0.3-1.4-0.6-2-0.8c-3-1.2-5.8-2.3-8.4-4.1
					c5.9-7.1,14-10.5,24.6-10.5c3.5,0,7.1,0.4,11.2,1.1c-5.8,2.1-10.2,5.5-13.4,10.2c-1.6,2.3-2.8,4.8-4.1,7.3
					C126.9,42.1,126.5,42.8,126.2,43.5z"/>
				<path fill="#FFFFFF" d="M133.5,23.4c2.8,0,5.9,0.2,9.1,0.8c-5,2.2-8.9,5.4-11.8,9.7c-1.6,2.3-2.9,4.9-4.1,7.3
					c-0.2,0.4-0.4,0.8-0.6,1.2c-1.8-2.4-4.3-3.6-6.6-4.6c-0.7-0.3-1.4-0.6-2.1-0.8c-2.7-1.1-5.3-2.2-7.7-3.7
					C115.6,26.7,123.3,23.4,133.5,23.4 M133.5,22.3c-9.6,0-18.7,2.8-25.4,11.2c3.4,2.4,7.2,3.8,11,5.4c3.1,1.3,5.6,2.7,7.1,5.8
					c1.8-3.4,3.4-7,5.6-10.2c3.7-5.5,8.9-8.8,15.2-10.7C142.5,22.9,137.9,22.3,133.5,22.3L133.5,22.3z"/>
			</g>
		</g>
	</g>
	<g>
		<path fill="#1285C8" d="M8.4,51.1c-0.8,0.2-1.9,0.3-3.2,0.3H0V33.9h3.9c2,0,3.7,0,5.4,0.8c2,0.9,4.4,2.8,4.4,7.9
			C13.6,48.4,9.9,50.6,8.4,51.1z M4.8,36.1H2.6v13.1h2.5c4,0,5.6-2.4,5.6-6.4C10.7,38.6,9.2,36.1,4.8,36.1z"/>
		<path fill="#1285C8" d="M24.9,36.8c-0.2-0.1-0.5-0.1-0.8-0.1c-1,0-2,0.4-2.8,1.2s-1,1.3-1,2.7v10.7h-2.7V38.2
			c0-2.5-0.6-3.6-0.6-3.6l2.7-0.7c0,0,0.6,1.3,0.5,2.8c1.2-1.8,3-2.9,4.8-2.9c0.4,0,0.9,0.2,0.9,0.2L24.9,36.8z"/>
		<path fill="#1285C8" d="M29.2,43.3v0.4c0,1.6,0.2,2.9,0.8,3.8c1,1.5,2.5,2.1,4.2,2.1c1.6,0,3-0.5,4.2-1.6l1,1.7
			c-1.5,1.4-3.5,2.1-5.7,2.1c-4.7,0-7.5-3.4-7.5-9.1c0-2.9,0.6-4.7,2-6.5c1.4-1.6,3-2.4,5.1-2.4c1.8,0,3.4,0.7,4.6,1.9
			c1.5,1.5,1.9,3.1,1.9,7.2v0.4H29.2z M36.2,37.4c-0.6-0.9-1.8-1.5-3.1-1.5c-2.4,0-3.8,1.8-3.9,5.3H37
			C36.9,39.4,36.7,38.2,36.2,37.4z"/>
		<path fill="#1285C8" d="M55.5,52c-1.2-0.4-2-1.3-2.3-2.5c-1.6,1.7-3,2.3-4.9,2.3c-4.2,0-5.5-2.6-5.5-4.9c0-3.9,3.3-6.2,9-6.2
			c0.7,0,1.2,0,1.2,0v-1.2c0-1.5-0.1-2.1-0.5-2.7c-0.5-0.6-1.2-0.9-2.3-0.9c-1.9,0-4.3,1-5.4,2L43.5,36c2.3-1.5,4.7-2.3,7.1-2.3
			c2.4,0,4,0.9,4.7,2.7c0.4,0.9,0.4,2.2,0.4,3.8l-0.1,5.6c-0.1,2.8,0.1,3.5,1.4,4.2L55.5,52z M51.6,42.6c-4.3,0-5.8,1.5-5.8,4.1
			c0,2,1,3.1,2.9,3.1c1.7,0,3.3-1.1,4.1-2.7l0.1-4.5C52.5,42.6,52.1,42.6,51.6,42.6z"/>
		<path fill="#1285C8" d="M78.7,51.4V38.7c0-1.7-0.8-2.5-2.2-2.5c-1.5,0-2.7,1-4.5,2.6v12.5h-2.7V39.2c0-1-0.1-1.7-0.5-2.2
			s-1-0.7-1.7-0.7c-1.3,0-2.6,0.7-4.3,2.3v12.8h-2.6V38.1c0-2.5-0.6-3.6-0.6-3.6l2.6-0.6c0,0,0.6,1.3,0.6,2.5
			c1.1-1.3,3.2-2.6,4.9-2.6c1.7,0,3.3,1,4,2.9c1.6-1.8,3.7-2.9,5.5-2.9c2.5,0,4.3,1.9,4.3,4.6v12.9L78.7,51.4L78.7,51.4z"/>
		<path fill="#878787" d="M86.6,51.4V33.9h2.6v17.5H86.6z"/>
		<path fill="#878787" d="M104.7,36.2h-5.2v15.2h-2.6V36.2h-5.2V34h13.2L104.7,36.2z"/>
	</g>
</g>
<g>
</g>
<g>
</g>
<g>
</g>
<g>
</g>
<g>
</g>
<g>
</g>
</svg>
