<?xml version="1.0" encoding="utf-8"?>
<svg
   xmlns:svg="http://www.w3.org/2000/svg"
   xmlns="http://www.w3.org/2000/svg"
   version="1.0"
   width="579"
   height="193"
   id="svg1943">
	<defs>
	</defs>
	<g>
		<path fill="#1B255C" d="M245.89,166.124l13.686,23.956h-18.55l-10.227-20.055h-8.837l0.01,20.007h-15.914v-59.534h27.729
			c15.788,0,22.373,9.346,22.373,19.378C256.159,155.467,253.377,162.918,245.89,166.124z M221.971,142.879v14.766h10.12
			c5.36,0,7.88-3.714,7.88-7.387c0-3.771-2.521-7.379-7.88-7.379H221.971z M397.683,192.169c-20.551,0-28.811-13.612-28.811-31.881
			s8.26-31.837,28.811-31.837c20.556,0,28.817,13.568,28.817,31.837S418.239,192.169,397.683,192.169z M397.683,141.46
			c-9.333,0-12.154,7.909-12.154,18.828c0,11.022,2.821,18.97,12.154,18.97c9.336,0,12.163-7.947,12.163-18.97
			C409.846,149.37,407.019,141.46,397.683,141.46z M196.125,150.76c0,11.116-7.845,20.352-25.22,20.352h-9.236v18.968h-15.993
			v-59.582h25.229C188.28,130.498,196.125,139.834,196.125,150.76z M179.942,150.76c0-4.67-2.759-7.748-9.905-7.748h-8.367v15.593
			h8.367C177.183,158.605,179.942,155.423,179.942,150.76z M528.333,169.654c8.636,6.057,16.928,9.574,24.521,9.574
			c4.469,0,7.945-1.87,7.945-5.351c0-3.375-2.584-4.881-9.535-6.967c-11.218-3.379-22.436-7.752-22.436-20.366
			c0-9.731,8.935-17.696,24.125-17.696c7.252,0,13.403,1.474,19.56,3.851v13.559c-6.005-2.753-11.938-4.938-19.46-4.938
			c-4.764,0-6.852,2.206-6.852,4.688c0,3.283,5.357,5.041,13.635,7.696c13.91,4.444,18.436,10.053,18.436,18.854
			c0,11.388-10.042,19.395-25.318,19.395c-11.019,0-19.069-3.521-24.621-6.61V169.654z M514.925,130.498v59.582h-16.084v-59.582
			H514.925z M451.696,190.08l-20.854-59.582h17.966l13.373,41.264l13.374-41.264h15.769L470.47,190.08H451.696z M318.488,190.08
			h-14.893v-59.582h14.693l22.839,33.568v-33.568h14.894v59.582h-14.698l-22.835-33.563V190.08z M286.456,130.498v59.582h-16.087
			v-59.582H286.456z"/>
		<path fill="#2F7AB8" d="M210.566,37.112c9.018-2.718,14.526-2.27,21.267,0.533c6.732,2.806,24.101,9.535,28.81,11.498
			c4.699,1.966,6.265,5.739-0.417,8.396c-6.685,2.657-16.69,6.496-22.083,8.58c-5.39,2.08-11.589,3.456-20.214-0.647
			c-12.823-6.11-25.374-11.938-29.327-13.832c-5.46-2.619-7.102-5.664,0.46-7.934C196.619,41.431,201.543,39.839,210.566,37.112z
			 M144.833,43.056c-8.052-3.992-17.001-8.291-23.809-11.682c-6.81-3.392-3.745-6.122,0.745-7.108
			c4.486-0.981,23.956-5.44,29.284-6.614c5.319-1.166,9.146-2.279,15.126,0.213c5.98,2.49,18.271,7.57,24.326,9.988
			c6.05,2.421,5.661,4.688-1.896,6.792c-7.554,2.099-19.118,5.168-25.385,6.93c-6.265,1.766-6.444,4.982-0.194,8.16
			c6.252,3.174,24.428,12.139,30.924,15.285c6.497,3.146,6.656,7.393-0.669,10.134c-7.325,2.739-29.394,10.855-38.335,14.164
			c-8.94,3.308-15.085,2.072-22.34-2.329c-7.257-4.4-20.436-12.497-26.232-16.063c-5.801-3.562-6.147-7.251,1.164-9.372
			c7.313-2.124,31.552-9.036,35.989-10.312C147.964,49.977,152.88,47.049,144.833,43.056z M90.436,1.084
			c3.941-0.654,9.466-2.412,16.762,0.725c7.299,3.135,9.589,4.133,15.188,6.571c5.6,2.438,5.429,5.108,0.034,6.259
			c-5.398,1.153-19.629,4.052-27.944,5.814c-8.31,1.761-7.59,4.18-0.85,7.645c6.736,3.466,17.797,9.244,24.186,12.455
			c6.391,3.214,5.509,5.818-1.569,7.817c-7.073,2.004-25.259,6.888-35.839,9.756c-10.578,2.869-4.669,7.002-1.408,9.126
			c3.27,2.126,27.229,17.145,33.046,20.83c5.816,3.689,5.766,7.74-2.154,10.518c-7.917,2.765-47.932,17.202-56.97,20.262
			c-9.04,3.055-14.922,1.98-21.374-3.577c-6.452-5.559-21.037-17.952-27.846-23.831c-6.809-5.881-3.362-7.463,3.416-9.296
			c6.776-1.834,45.204-12.283,52.711-14.341c7.507-2.062,8.026-5.389,2.52-8.865c-5.505-3.482-16.777-10.665-22.991-14.613
			c-6.211-3.948-7.138-6.701,0.874-8.357c8.011-1.651,27.338-5.815,34.493-7.345c7.162-1.532,6.472-4.455,1.307-7.106
			c-5.162-2.646-8.992-4.647-14.633-7.51c-5.643-2.864-6.178-6.719,0.727-7.969C69.031,4.799,86.48,1.739,90.436,1.084z"/>
	</g>
</svg>
