<svg xmlns="http://www.w3.org/2000/svg" width="100" height="100" viewBox="0 0 26.458 26.458"><circle cx="13.229" cy="13.229" r="13" style="fill:#fff"/><g fill="none" fill-rule="evenodd"><path fill="#326de6" d="M351.21 1.59c-9.517 0-19.038 2.27-28.104 6.346L93.736 117.638c-18.135 8.61-30.825 24.476-35.357 43.967L1.713 407.75c-4.533 19.49 0 39.438 12.694 55.305l158.654 197.184c12.242 15.415 30.825 24.024 50.317 24.024h254.306c19.49 0 38.074-8.61 50.316-24.024l158.654-197.184c12.694-15.415 17.227-35.814 12.694-55.305l-56.665-246.145c-4.533-19.491-17.223-35.358-35.358-43.967L378.863 7.936c-8.613-4.077-18.135-6.345-27.652-6.345m0 21.303c6.345 0 12.694 1.36 18.587 4.081l229.37 109.246c11.785 5.893 20.85 16.775 23.571 29.465l56.662 246.144c3.172 13.146 0 26.745-8.614 37.17L512.133 646.19c-8.161 10.426-20.851 16.319-33.997 16.319H223.834c-13.146 0-25.84-5.893-33.998-16.32L31.178 449c-8.157-10.425-11.33-24.024-8.613-37.17L79.23 165.686c3.172-13.146 11.786-24.024 23.572-29.465l229.37-109.698c5.892-2.269 12.694-3.629 19.039-3.629" mask="url(#mask-2)" transform="matrix(.0302 0 0 .031 2.646 2.596)"/><path fill="#1fbfcf" d="M9.243 21.353c.245.317.614.492.998.492l6.025-.011c.385 0 .75-.186.995-.492l3.673-4.749c.106-.148.094-.439.094-.684V9.277l-7.892 4.667-7.884-4.662v6.627c0 .25.086.492.243.695z"/><path fill="#c9e9ec" d="m13.136 13.944 7.892-4.667-7.9-4.663L5.253 9.28z"/><path fill="#326de6" d="M15.02 17.549a.54.54 0 0 1-.721-.127c-.062-.063-.082-.148-.103-.232l-.185-3.444c1.42.169 2.716.824 3.703 1.838zm-2.799-.444c-.02.296-.247.55-.555.55a.5.5 0 0 1-.247-.064l-2.737-2.007a6.23 6.23 0 0 1 3.066-1.733c.226-.042.432-.084.658-.126zm7.695-1.415.205-.19v-.043c0-.105.02-.211.103-.317.247-.232.556-.422.926-.655.062-.042.123-.063.185-.105a3 3 0 0 0 .35-.212c.02-.02.061-.042.103-.084.02-.021.04-.021.04-.042.289-.254.35-.676.145-.951a.58.58 0 0 0-.473-.233.75.75 0 0 0-.453.17l-.041.042c-.041.02-.062.063-.103.084a4 4 0 0 0-.267.296c-.042.042-.083.106-.144.148-.289.317-.556.57-.823.76a.33.33 0 0 1-.186.064c-.04 0-.082 0-.123-.021h-.041l-.247.169a10 10 0 0 0-.844-.803 8.1 8.1 0 0 0-4.3-1.754l-.02-.274-.041-.043c-.062-.063-.144-.126-.165-.274-.02-.338.02-.719.062-1.141v-.021c0-.064.02-.148.041-.211.02-.127.041-.254.062-.402v-.19c0-.38-.288-.697-.638-.697a.65.65 0 0 0-.452.211.68.68 0 0 0-.186.486v.169c0 .148.021.275.062.401.02.064.02.127.041.212v.02c.041.423.103.804.062 1.142-.02.148-.103.21-.165.274l-.04.043-.021.274c-.37.042-.741.085-1.111.17a7.9 7.9 0 0 0-4.074 2.366l-.205-.148h-.042c-.04 0-.082.02-.123.02a.33.33 0 0 1-.185-.063c-.268-.19-.535-.464-.823-.781-.041-.043-.082-.106-.144-.148a4 4 0 0 0-.268-.296c-.02-.021-.061-.042-.102-.084-.021-.022-.042-.022-.042-.043a.7.7 0 0 0-.452-.169.58.58 0 0 0-.473.233c-.206.274-.144.697.144.95.02 0 .02.021.04.021.042.022.062.064.104.085.123.085.226.148.35.211a.8.8 0 0 1 .184.106c.37.232.68.422.926.655.103.105.103.211.103.317v.042l.206.19c-.041.064-.082.106-.103.17a8 8 0 0 0-.617 1.219L6.996 18.5a6.7 6.7 0 0 1 .699-1.65l2.448 2.24c.227.19.247.55.062.782a.4.4 0 0 1-.247.169l-1.414.421.703.89c.245.317.613.492.998.492l6.025-.011c.385 0 .75-.186.995-.492l.66-.852-1.445-.427a.574.574 0 0 1-.391-.676.5.5 0 0 1 .123-.233l2.49-2.302a6.8 6.8 0 0 1 .71 1.714l1.196-1.546a9 9 0 0 0-.692-1.33"/></g></svg>