<svg xmlns="http://www.w3.org/2000/svg" width="1395" height="727" preserveAspectRatio="none" style="width:1395px;height:727px;background:#fff"><rect width="100%" height="100%" fill="#fff"/><path fill="none" d="M9.5 183.46v.21l10-.624 10 .607 10 .207 10-1.113 10 .635 10-.349 10 .044 10 .315 10-.623 10 1.245 10-1.184 10 .432 10 .63 10-.518 10 .154 10-.1 10 .21 10 .061 10 .347 10 .085 10 .008 10-.424 10 .209 10 .238 10-1.423 10 1.4 10-.976 10 .83 10-1.028 10 .427 10 .81 10-.79 10 .153 10 .234 10 .077 10-.42 10 .291 10-.86 10 .857 10 .264 10-.103 10 .168 10-1.096 10-.17 10 .032 10 .562 10-.138 10 .878 10-.856 10-.168 10 .571 10-.895 10 .148 10 1.168 10-.213 10 .299 10-1.057 10 .641 10 .271 10-1.062 10 .376 10 .222 10 .526 10-.656 10 .467 10-1.017 10-.123 10 1.18 10-1.22 10 1.226 10-.302 10-.475 10-.086 10 .813 10-.758 10 .89 10-1.144 10 1.17 10-.133 10-.239 10-.198 10 .68 10-.113 10-.445 10 .1 10-.4 10 .847 10-.561 10 .018 10-.781 10 .203 10 .936 10-.101 10-.473 10-.28 10 .104 10-.467 10 1.1 10 .326 10-.214 10 .169 10-.832 10 .224 10-.475 10 .672 10-.037 10 .305 10-.782 10 .096 10 .578 10 .123 10-1.08 10 .32 10 .342 10-.76 10 .964 10-.095 10-.359 10 .243 10 .587 10-1.042 10 .628 10-.03 10-.17 10 .026 10-.028 10-.737 10 .223 10 .401-.059-.142.42.308.357.154.363.17.296.006.39.236-.02-.008.13.346.361.443.1.334-.134.238.296.415h-.073l-.504 10.063.865 10.062.32 10.063-.063 10.063-.98 10.062.899 10.063-1.207 10.063.943 10.062-.5 10.063.397 10.062.143 10.063.232 10.063-1.192 10.062 1.196 10.063-.298 10.063.177 10.062.393 10.063-.743 10.063.17 10.062.038 10.063-.016 10.063-.198 10.062.712 10.063-1.32 10.062 1.174 10.063-1.189 10.063.084 10.062.58 10.063-.012 10.063-.52 10.062.906 10.063-.305 10.063.618 10.062-.06 10.063-1.115 10.063.05 10.062.269 10.063.484 10.062.048 10.063-.102 10.063-.643 10.062.978 10.063-.002 10.063-.681 10.062-.192 10.063-.162 10.063.186 10.062.352 10.063-.205 10.062-.35 10.063.905 10.063-.946 10.062.459 10.063.155.064-.17.344-.163.346-.048.395-.435.234-.071.385-.039-.093-.249.399-.495-.197-.308.258-.309.254-.368.111v.069l-10-.428-10 .316-10 .788-10-.096-10-1.245-10 .675-10-.593-10 .488-10 .319-10 .127-10-1.085-10 1.066-10-.393-10-.563-10 .084-10 .798-10-.077-10-.266-10-.656-10 1.33-10-.97-10-.216-10 .46-10 .658-10 .025-10-.58-10-.186-10 .32-10 .017-10-.694-10 .922-10 .145-10-.775-10-.213-10 1.104-10-.654-10-.021-10 .299-10-.945-10 1.176-10-.545-10 .684-10-.885-10 .625-10-.853-10 .689-10 .134-10-.706-10 .69-10-.934-10 .1-10 1.154-10 .001-10-.116-10-.928-10 .744-10-.856-10 .53-10-.06-10-.26-10 .878-10-.173-10-.764-10 .848-10-.435-10-.676-10 .35-10-.291-10 .386-10-.49-10 .029-10 .67-10-.19-10 .061-10-.084-10 .31-10-.722-10 .715-10-.903-10 1.039-10 .297-10-.07-10-.162-10-.169-10-.086-10-.746-10 1.087-10-.117-10-.483-10 .147-10-.203-10 .427-10 .462-10-1.034-10 .823-10-.558-10-.29-10-.053-10-.213-10 .204-10 .477-10 .237-10 .303-10-.156-10-1.131-10 1.33-10-.133-10 .055-10-.02-10-1.18-10 .401-10 .574-10-.798-10 .38-10 .169-10 .26-10-.281-10 .699-10-.334-10-.155-10-.796-10 .879-10-.913-10 .88-10-.298-10 .292-10-.387-10-.11-10 .197-.095-.228-.286.015-.416-.297-.295-.005-.266.064-.41-.281.05.02-.335-.431.068-.265-.202-.376v-.293L7 719.28h.565l-.471-10.063-.273-10.062-.035-10.063.208-10.063.675-10.062-1.343-10.063.51-10.062.43-10.063.466-10.063-.52-10.062-.41-10.063-.54-10.063.314-10.062.202-10.063.562-10.063.03-10.062-.318-10.063-.185-10.062-.587-10.063.849-10.063.306-10.063.248-10.062-.585-10.063-.018-10.062-.3-10.063.469-10.063-.719-10.062.986-10.063-.822-10.063-.224-10.062.787-10.063.215-10.062-.415-10.063-.178-10.063.279-10.062-.183-10.063-.07-10.063.172-10.062-.409-10.063.721-10.063.298-10.062-1.04-10.063.119-10.063-.235-10.062.706-10.063-.33-10.062.644-10.063-.851-10.063-.059-10.062.656-10.063-.521-10.063.49-10.062L7 185.96l.086.036.195-.334-.137-.471.322-.28.285-.297-.019-.422-.069-.167.487.176.246-.406.417.006.417.007z" style="stroke:#444;stroke-width:1;stroke-dasharray:7,7"/><text x="590.292" y="202.564" fill="#444" font-family="sans-serif" font-size="16" font-weight="bold" textLength="128.416">Message Broker</text><text x="628.784" y="220.08" fill="#444" font-family="sans-serif" font-size="12" font-weight="bold" textLength="51.432">[System]</text><text x="652.68" y="238.562" fill="#444" font-family="sans-serif" font-size="14" font-weight="bold" textLength="3.64"> </text><text x="619.444" y="257.63" fill="#444" font-family="sans-serif" font-size="14" font-weight="bold" textLength="70.112">RabbitMQ</text><path fill="none" d="M49.5 431.85v.21l9.983-.624 9.984.607 9.983.207 9.983-1.113 9.984.635 9.983-.349 9.983.043 9.984.316 9.983-.623 9.983 1.245 9.984-1.184 9.983.432 9.983.63 9.984-.518 9.983.154 9.983-.1 9.984.21 9.983.061 9.983.347 9.984.085 9.983.008 9.983-.424 9.984.209 9.983.238 9.983-1.423 9.984 1.4 9.983-.976 9.983.83 9.984-1.028 9.983.426 9.983.81 9.984-.79 9.983.154 9.983.234 9.984.077 9.983-.42 9.983.291 9.984-.86 9.983.857 9.983.264 9.984-.103 9.983.168 9.983-1.096 9.984-.17 9.983.032 9.983.562 9.984-.137 9.983.877 9.983-.856 9.984-.168 9.983.571 9.983-.895 9.984.148 9.983 1.168 9.983-.213 9.984.298 9.983-1.056 9.983.641 9.984.271 9.983-1.062 9.983.376 9.984.222 9.983.526 9.983-.656 9.984.467 9.983-1.017 9.983-.123 9.984 1.18 9.983-1.22 9.983 1.226 9.984-.302 9.983-.475 9.983-.086 9.984.813 9.983-.758 9.983.89 9.984-1.144 9.983 1.17 9.983-.133 9.984-.239 9.983-.198 9.983.68 9.984-.113 9.983-.445 9.983.1 9.984-.4 9.983.848 9.983-.562 9.984.018 9.983-.781 9.983.203 9.984.936 9.983-.101 9.983-.473 9.984-.28 9.983.104 9.983-.467 9.984 1.1 9.983.326 9.983-.214 9.984.169 9.983-.832 9.983.224 9.984-.475 9.983.672 9.983-.037 9.984.305 9.983-.782 9.983.096 9.984.577 9.983.124 9.983-1.08 9.984.32 9.983.342 9.983-.76 9.984.964 9.983-.095 9.983-.359 9.984.243 9.983-.142.093.224.22-.174.434.34.35.137.332.094.339.111.043.018.138.35-.08.26.215.382.127.346.289.412h.064l.024 10.205.074 10.206-.453 10.205.223 10.206-.052 10.205.697 10.205-.15 10.206-.912 10.205.412 10.206-.504 10.205.865 10.206.32 10.205-.063 10.205-.98 10.206.899 10.205-1.207 10.206.943 10.205-.5 10.206.397 10.205.143 10.205.232 10.206-1.192 10.205 1.196 10.206-.476 10.205.055.023-.092.376-.026.404-.375.258-.094.376-.2.33.027.067-.356.141-.378.085-.263.366-.522-.26-.276.334v.565l-9.983-1.189-9.984.084-9.983.58-9.983-.012-9.984-.52-9.983.906-9.983-.305-9.984.618-9.983-.06-9.983-1.115-9.984.05-9.983.269-9.983.485-9.984.047-9.983-.102-9.983-.643-9.984.978-9.983-.002-9.983-.681-9.984-.192-9.983-.162-9.983.186-9.984.352-9.983-.205-9.983-.35-9.984.905-9.983-.946-9.983.961-9.984-.075-9.983-.055-9.983.32-9.984-.938-9.983-.055-9.983.82-9.984-1.116-9.983.363-9.983.35-9.984-.047-9.983-.428-9.983.316-9.984.788-9.983-.096-9.983-1.245-9.984.675-9.983-.593-9.983.488-9.984.319-9.983.127-9.983-1.085-9.984 1.066-9.983-.393-9.983-.563-9.984.084-9.983.798-9.983-.077-9.984-.266-9.983-.656-9.983 1.33-9.984-.97-9.983-.216-9.983.46-9.984.658-9.983.025-9.983-.58-9.984-.186-9.983.32-9.983.017-9.984-.694-9.983.922-9.983.145-9.984-.775-9.983-.213-9.983 1.104-9.984-.654-9.983-.021-9.983.299-9.984-.945-9.983 1.176-9.983-.545-9.984.684-9.983-.885-9.983.625-9.984-.853-9.983.689-9.983.134-9.984-.706-9.983.69-9.983-.934-9.984.1-9.983 1.154-9.983.001-9.984-.116-9.983-.928-9.983.744-9.984-.856-9.983.53-9.983-.06-9.984-.26-9.983.878-9.983-.173-9.984-.764-9.983.848-9.983-.435-9.984-.676-9.983.35-9.983-.291-9.984.386-9.983-.49-9.983.029-9.984.67-9.983-.19-9.983.061-9.984-.084-9.983.31-9.983-.722-9.984.715-9.983-.903-9.983 1.039-9.984.297-9.983-.593.067.16-.374-.195-.376-.199-.364-.173-.449-.376-.272.05.138.058-.183-.369-.295-.415-.1-.335-.21-.38-.082-.326h.218l.462-10.205-1.034-10.206.823-10.205-.558-10.206-.29-10.205-.053-10.206-.213-10.205.204-10.205.477-10.206.237-10.205.303-10.206-.156-10.205-1.131-10.205 1.33-10.206-.133-10.205.055-10.206-.02-10.205-1.18-10.206.401-10.205.574-10.205-.797-10.206.378-10.205.17-10.206L47 434.35l.1.042.06-.39.362-.264.044-.396.099-.373.067-.387-.069-.166.466.124.237-.428.466.125.315-.238z" style="stroke:#444;stroke-width:1;stroke-dasharray:7,7"/><text x="602.916" y="450.954" fill="#444" font-family="sans-serif" font-size="16" font-weight="bold" textLength="91.168">Retry Block</text><path fill="#62929E" d="M130.42 286.46v.56l10.13-1.665 10.13 1.62 10.13.55 10.13-2.967 10.129 1.695 10.13-.93 10.13.114 10.13.841 10.13.182-.435-.435 4.382 4.383 2.856 2.856 3.872 3.872 3.996 3.995 3.328 3.329h-.076l.137 1.158-.09 1.159.188 1.158.054 1.159-.213 1.158.368.368-3.546 3.654-3.595 3.605-3.867 3.333-3.468 3.731-3.892 3.309v1.873l-10.13-3.796-10.13 3.732-10.13-2.6-10.129 2.214-10.13-2.743-10.13 1.137-10.13 2.16-10.13-2.107-10.129.13.066.066-3.453-3.453-3.551-3.551-3.864-3.864-3.417-3.417-3.781-3.781h-.509l.762-1.158.234-1.159-.092-1.158.15-1.159-.545-1.158-.304-.304 3.494-3.706 3.62-3.58 3.953-3.247 3.513-3.686 3.724-3.477" style="stroke:#3c7fc0;stroke-width:.5"/><text x="122.42" y="313.564" fill="#FFF" font-family="sans-serif" font-size="16" font-weight="bold" textLength="107.168">my-exchange</text><path fill="#62929E" d="M325.98 291.46v.56l10.004-1.665 10.003 1.62 10.004.55 10.003-2.967 10.004 1.695 10.004-.93 10.003.114 10.004.841 10.003.182-.293-.092 1.528 3.345.498 3.021 1.183 3.237 1.267 3.263.817 3.122-.036-.011-.935 3.2L419 313.71l-.911 3.207-.974 3.188-1.102 3.147v1.562l-10.003.227-10.004.022-10.003-1.132-10.004.557-10.004.637-10.003-3.796-10.004 3.732-10.003-2.6-10.004.791.226.071-1.436-3.316-.819-3.123-.657-3.07-1.335-3.285-.979-3.173.045.014 1.099-3.148 1.032-3.169.822-3.235 1.124-3.14.878-3.218" style="stroke:#3c7fc0;stroke-width:.5"/><path fill="none" d="m416.012 291.46.09.028-1.265 3.096-.743 3.26-.912 3.207-1.472 3.03-.698 3.275-.033-.01.852 3.132 1.019 3.185 1.133 3.221.736 3.097 1.293 3.271" style="stroke:#3c7fc0;stroke-width:.5"/><text x="325.98" y="313.564" fill="#FFF" font-family="sans-serif" font-size="16" font-weight="bold" textLength="80.032">my-queue</text><path fill="#CC8635" d="M1055.66 488.02v.56l10.18-1.665 10.178 1.62 10.18.55 10.179-2.967 10.18 1.695 10.178-.93 10.18.114 10.179.841 10.179-1.662 10.18 3.32 10.178-3.157 10.18 1.154 10.179 1.679 10.18-1.38 10.178.228.043.043 3.537 3.537 3.732 3.732 3.639 3.638 3.818 3.818 3.231 3.232h.597l.007 1.158-.377 1.159.185 1.158.213 1.159-.625 1.158-.453-.453-2.72 4.48-4.213 2.987-3.078 4.122-4.247 2.953-3.289 3.911v-.183l-10.179 2.16-10.18-2.107-10.178.41-10.18.623-10.179.207-10.179-1.12-10.18.776-10.178-2.292-10.18 2.284-10.179.704-10.18-.277-10.178.45-10.18-2.923-10.179-.451-10.179 1.739-.39-.39-3.247-3.247-3.687-3.686-3.048-3.049-4.138-4.138-3.49-3.49h-.305l.508-1.158-.796-1.159.132-1.158 1.038-1.159-.577-1.158.274.274 3.788-3.412 2.936-4.264 4.003-3.197 3.77-3.43 3.229-3.971" style="stroke:#3c7fc0;stroke-width:.5"/><text x="1047.66" y="515.124" fill="#FFF" font-family="sans-serif" font-size="16" font-weight="bold" textLength="168.688">
                retry-error-exchange</text><path fill="#CC8635" d="M799.22 493.02v.56l10.103-1.665 10.104 1.62 10.103.55 10.104-2.967 10.103 1.695 10.104-.93 10.103.114 10.104.841 10.103-1.662 10.104 3.32 10.103-3.157 10.104 1.154 10.103 1.679 10.104-1.38 10.103.228.03.01.957 3.165 1.089 3.207 1.026 3.188 1.147 3.225.751 3.101.285.09-.997 3.18-1.18 3.122-.911 3.207-.899 3.212-1.298 3.085v-1.923l-10.103 3.732-10.104-2.6-10.103 2.215-10.104-2.744-10.103 1.137-10.104 2.16-10.103-2.107-10.104.41-10.103.623-10.104.207-10.103-1.12-10.104.776-10.103-2.292-10.104 2.284-10.103-.758.232.073-1.043-3.193-.93-3.157-1.464-3.325-1.072-3.202-.723-3.092-.264-.083 1.239-3.104.942-3.198 1.372-3.062.637-3.293 1.074-3.156" style="stroke:#3c7fc0;stroke-width:.5"/><path fill="none" d="m950.772 493.02.09.028-1.265 3.096-.743 3.26-.912 3.207-1.472 3.03-.698 3.275-.033-.01.852 3.132 1.019 3.185 1.133 3.221.736 3.097 1.293 3.271" style="stroke:#3c7fc0;stroke-width:.5"/><text x="799.22" y="515.124" fill="#FFF" font-family="sans-serif" font-size="16" font-weight="bold" textLength="141.552">
                retry-error-queue</text><path fill="#B5533F" d="M460.62 479.85v.56l10.318-1.665 10.318 1.62 10.318.55 10.318-2.967 10.317 1.695 10.318-.93 10.318.114 10.318.841 10.318-1.662 10.318 3.32 10.318-3.157 10.318 1.154 10.318 1.679 10.317-1.38 10.318.228.043.043 3.537 3.537 3.733 3.732 3.638 3.638 3.817 3.818 3.232 3.232h.597l.007 4.427-.377 4.428.185 4.427.213 4.427-.625 4.427-.453-.453-2.72 4.48-4.213 2.987-3.078 4.122-4.247 2.953-3.289 3.911v-.183l-10.317 2.16-10.318-2.107-10.318.411-10.318.622-10.318.207-10.318-1.12-10.318.776-10.318-2.292-10.318 2.284-10.318.704-10.317-.276-10.318.449-10.318-2.923-10.318-.451-10.318 1.74-.39-.391-3.247-3.247-3.687-3.686-3.048-3.048-4.138-4.139-3.49-3.49h-.305l.508-4.427-.796-4.427.132-4.428 1.038-4.427-.577-4.427.274.274 3.788-3.412 2.936-4.264 4.003-3.197 3.77-3.43 3.229-3.971" style="stroke:#3c7fc0;stroke-width:.5"/><text x="452.62" y="506.954" fill="#FFF" font-family="sans-serif" font-size="16" font-weight="bold" textLength="170.768">
                retry-delay-exchange</text><text x="469.514" y="524.47" fill="#FFF" font-family="sans-serif" font-size="12" font-style="italic" textLength="29.076">[type:</text><text x="498.59" y="524.47" fill="#FFF" font-family="sans-serif" font-size="12" font-style="italic" textLength="3.12"> </text><text x="501.71" y="524.47" fill="#FFF" font-family="sans-serif" font-size="12" font-style="italic" textLength="104.785">
                x-delayed-message]</text><path fill="#B5533F" d="M99.18 493.02v.56l10.242-1.665 10.242 1.62 10.242.55 10.243-2.967 10.242 1.695 10.242-.93 10.242.114 10.242.841 10.242-1.662 10.242 3.32 10.243-3.157 10.242 1.154 10.242 1.679 10.242-1.38 10.242.228.03.01.957 3.165 1.089 3.207 1.026 3.188 1.147 3.225.751 3.101.285.09-.997 3.18-1.18 3.122-.911 3.207-.899 3.212-1.298 3.085v-1.923l-10.242 3.732-10.242-2.6-10.242 2.215-10.242-2.744-10.243 1.137-10.242 2.16-10.242-2.107-10.242.41-10.242.623-10.242.207-10.242-1.12-10.243.776-10.242-2.292-10.242 2.284-10.242-.758.232.073-1.044-3.193-.928-3.157-1.465-3.325-1.072-3.202-.723-3.092-.264-.083 1.239-3.104.942-3.198 1.372-3.062.637-3.293 1.074-3.156" style="stroke:#3c7fc0;stroke-width:.5"/><path fill="none" d="m252.812 493.02.09.028-1.265 3.096-.743 3.26-.912 3.207-1.472 3.03-.698 3.275-.033-.01.852 3.132 1.019 3.185 1.133 3.221.736 3.097 1.293 3.271" style="stroke:#3c7fc0;stroke-width:.5"/><text x="99.18" y="515.124" fill="#FFF" font-family="sans-serif" font-size="16" font-weight="bold" textLength="143.632">retry-delay-queue</text><path fill="#666" d="M774.5 615.99v.56l10.05-1.665 10.05 1.62 10.051.55 10.05-2.967 10.051 1.695 10.05-.93 10.051.114 10.05.841 10.05-1.662 10.051 3.32 10.05-3.157 10.051 1.154 10.05 1.679 10.05-1.38 10.051.41 10.05-.267 10.051.561 10.05.162 10.051.924 10.05-1.562.422.422 3.605 3.605 3.334 3.333 3.73 3.731 3.75 3.75 3.16 3.159h-.642l1.245 1.158-.867 1.159.738 1.158-.915 1.159.44 1.158-.043-.043-3.09 4.11-4.097 3.102-3.503 3.697-3.454 3.747-3.813 3.387v1.11l-10.05-1.12-10.05.776-10.05-2.292-10.051 2.284-10.05.704-10.051-.277-10.05.45-10.05-2.923-10.051-.451-10.05.082-10.051 1.5-10.05-.367-10.051 2.341-10.05-2.283-10.05-.449-10.051 1.524-10.05-2.387-10.051.394-10.05 3.115-10.051-1.731.274.274-3.412-3.412-4.264-4.264-3.197-3.197-3.43-3.43-3.971-3.971h-.42l.335-1.158.197-1.159.467-1.158-.583-1.159.004-1.158.29.29 2.962-4.238 3.522-3.678 4.342-2.858 2.833-4.367 4.051-3.149" style="stroke:#3c7fc0;stroke-width:.5"/><text x="766.5" y="643.094" fill="#FFF" font-family="sans-serif" font-size="16" font-weight="bold" textLength="217.008">
                retry-dead-letter-exchange</text><path fill="#666" d="M487.06 620.99v.56l9.994-1.665 9.993 1.62 9.994.55 9.993-2.967 9.994 1.695 9.994-.93 9.993.114 9.994.841 9.994-1.662 9.993 3.32 9.994-3.157 9.993 1.154 9.994 1.679 9.994-1.38 9.993.41 9.994-.267 9.994.561 9.993.162 9.994.924 9.993-1.562.285.09 1.003 3.18.82 3.122 1.089 3.207 1.101 3.212.702 3.085-.305-.096-.407 3.366-1.413 3.049-.648 3.29-1.437 3.042-.79 3.245v-.183l-9.993 2.16-9.994-2.107-9.994.41-9.993.623-9.994.207-9.993-1.12-9.994.776-9.994-2.292-9.993 2.284-9.994.704-9.993-.277-9.994.45-9.994-2.923-9.993-.451-9.994.082-9.994 1.5-9.993-.367-9.994 2.341-9.993-2.283-9.994.466-.145-.046-.758-3.103-1.38-3.298-.937-3.16-.505-3.023-1.275-3.266.185.058 1.126-3.14.553-3.32 1.271-3.093 1.115-3.143.75-3.258" style="stroke:#3c7fc0;stroke-width:.5"/><path fill="none" d="m686.932 620.99.09.028-1.265 3.096-.743 3.26-.912 3.207-1.472 3.03-.698 3.275-.033-.01.853 3.132 1.018 3.185 1.134 3.221.735 3.097 1.293 3.271" style="stroke:#3c7fc0;stroke-width:.5"/><text x="487.06" y="643.094" fill="#FFF" font-family="sans-serif" font-size="16" font-weight="bold" textLength="189.872">
                retry-dead-letter-queue</text><path fill="#999" d="M190.1 7v.21l9.756-.624 9.755.607 9.756.207 9.755-1.113 9.756.635 9.755-.348 9.756.043 9.756.315L277.9 7l-.088-.213.512.53.203-.218.409.28.434.34.298.013-.026-.01.193.372.116.341.211.38.165.362.073.323h.586l.085 10.432.008 10.433-.424 10.432.209 10.432.238 10.433-1.423 10.432 1.4 10.432-.679 10.433-.091-.038.11.46-.464.222-.015.408.103.457-.375.258-.006-.014-.334.193-.324.219-.344.17-.407.017-.353.148v.287l-9.755-.86-9.756.857-9.756.264-9.755-.104-9.756.169-9.755-1.096-9.756-.17-9.755.031-9.756.622-.007-.018-.372-.19-.241.125-.463-.41-.375-.199-.31-.04.07.029-.422-.468-.1-.335.213-.204-.212-.381-.281-.41h.734l-1.056-10.432.641-10.432.271-10.432-1.062-10.433.376-10.432.222-10.432.526-10.433L187.6 9.5h-.001l.29-.294-.167-.484.109-.37.51-.202-.009-.418-.091-.22.51.23.315-.239.293-.293.342-.173z" style="stroke:#8a8a8a;stroke-width:.5"/><path fill="#999" d="m231.083 17 .173.072-1.095 1.174-.086 1.597-.414 1.46-1.496 1.005.002 1.634-.015-.032-.392.011-.318.17-.268.278-.443-.1-.198.431.191.454-1.796-1.554-1.24-.229-1.17-.067-1.567-1.008-1.36-.513.044.043-.903.777-.708.973-.802.878-.622 1.058-1.208.471.55.231.59 1.392.235 1.242.755 1.46.779 1.47.007 1.147-.29-.135.412.589-.544.144.183.482-.567.134.048.42-.024-.057-1.109 1.247-1.66-.064-1.336.71-1.308.774-1.505.306h.37l-.373 1.167.259 1.166-.764 1.167.761 1.167-.253 1.166.19.45 1.352.498 1.446.721 1.011-.314 1.33.444 1.613 1.118-.25-.116.378.432.096.3.506.492-.194.166.222.36-.28-.119-.116 1.585-1.317 1.08-.462 1.44.374 1.79-1.115 1.165.274.274 1.027 1.028.176.176 1.243 1.243 1.01 1.01.47.469-.163-.387 1.518-.275 1.465-.401 1.57-.153 1.162-1.12 1.39-.58.086.186.136-.258.304.102.548.627.098-.34.46.44.418.176.335 1.284.195 1.225.513 1.359 1.249 1.668.207 1.23v-.266l1.167.792 1.167-1.017 1.166 1.04 1.167-.118 1.167-.43.2.084.422-1.457 1.14-1.154.49-1.427.22-1.542.444-1.446.05.108.253-.312.485.19.221-.379.33-.144.295-.222-.21-.498 1.458.75 1.711 1.35 1.354.5 1.225.197 1.403.618-.202-.203.905-.775.546-1.133 1.532-.148 1.044-.636.375-1.305.432.181-.445-1.33-1.265-1.675-.4-1.311-.973-1.552-.265-1.255.114.053.137-.333.275-.27-.164-.473.19-.309.206-.301.153.363 1.43-.481 1.017-1.469 1.498-.322 1.507-.302 1.337-.706h-.543l.857-1.166-.085-1.167-.319-1.167.216-1.166-.126-1.167.25.597-1.746-1.437-1.172-.069-1.399-.607-1.447-.723-1.428-.678.057.027-.163-.332-.449-.465-.062-.285-.176-.338.035-.24.052.022.603-1.38.644-1.363.212-1.544.767-1.312.638-1.365-.075-.075-.402-.402-.935-.935-1.413-1.413-.58-.58-.795-.795-.198-.473-1.09 1.293-1.279.846-1.41.53-1.726-.22-1.238.941.087.187-.553-.638-.15.228-.42-.353-.253.008-.345-.19.197.082-.393-1.308-1.56-1.799.396-.977-.827-1.49-.73-1.45v.316l-1.166.349-1.167-.66-1.166.15-1.167.035-1.167-.19M234 31.583l.062.062 1.688 1.688 1.973 1.974 1.335 1.335 2.12 2.119 1.572 1.572-.196-.196-1.724 1.776-1.567 1.933-1.754 1.746-1.914 1.587L234 49.082l.13.13-1.846-1.846-1.556-1.555-1.768-1.769-2.1-2.1-1.61-1.61-.125-.125 1.834-1.665 1.903-1.598 1.765-1.735 1.718-1.782L234 31.583" style="stroke:#fff;stroke-width:.5"/><text x="197.6" y="80.771" fill="#FFF" font-family="sans-serif" font-size="16" font-weight="bold" textLength="72.8">Producer</text><path fill="#6DA34D" d="M685.75 7v.21l9.65-.624 9.65.607 9.651.207 9.65-1.113 9.651.635 9.65-.348 9.65.043 9.651.315 9.65-.623 9.651.691.07.17.203-.218.409.28.434.34.287-.013.365.173.02.009.116.34.212.381.165.361.253.398-.034.279h.671l.008 10.432-.424 10.433.209 10.432.238 10.432-1.423 10.433 1.4 10.432-.975 10.432.296 10.433.165.068-.464.222-.015.408.103.457-.39.253-.131.36.013.032-.323.218-.344.17-.407.018-.317.236-.39.058v-.573l-9.65.857-9.65.264-9.651-.104-9.65.169-9.65-1.096-9.651-.17-9.65.031-9.651.563-9.65-.138-9.651.197.087.21-.463-.41-.375-.199-.28.03-.468-.422-.269.058-.16-.066.214-.204-.212-.381-.055-.316-.472-.488-.047-.312h.32l.27-10.433-1.062-10.432.376-10.432.222-10.433.526-10.432-.656-10.432.467-10.433L683.25 9.5l-.17-.07.108-.37.51-.203-.23-.51.524-.196-.01-.419.027.064.293-.293.342-.173.457.104.257-.38z" style="stroke:#8a8a8a;stroke-width:.5"/><path fill="#6DA34D" d="m731.085 17 .173.072-1.095 1.174-.086 1.597-.414 1.46-1.495 1.005v1.634l-.014-.032-.392.011-.318.17-.268.278-.443-.1-.198.431.191.454-1.796-1.554-1.24-.229-1.17-.067-1.567-1.008-1.36-.513.044.043-.903.777-.708.973-.802.878-.622 1.058-1.208.471.55.231.59 1.392.235 1.242.755 1.46.779 1.47.007 1.147-.29-.135.412.589-.544.144.183.482-.567.134.048.42-.024-.057-1.109 1.247-1.66-.064-1.336.71-1.308.774-1.505.306h.37l-.373 1.167.259 1.166-.764 1.167.761 1.167-.253 1.166.19.45 1.352.498 1.446.721 1.011-.314 1.33.444 1.613 1.118-.25-.116.378.432.096.3.506.492-.194.166.222.36-.28-.119-.116 1.585-1.317 1.08-.462 1.44.374 1.79-1.115 1.165.274.274 1.027 1.028.176.176 1.243 1.243 1.01 1.01.47.469-.163-.387 1.518-.275 1.465-.401 1.57-.153 1.162-1.12 1.39-.58.086.186.136-.258.304.102.548.627.098-.34.46.44.418.176.335 1.284.195 1.225.513 1.359 1.249 1.668.207 1.23v-.266l1.167.792 1.167-1.017 1.166 1.04 1.167-.118 1.167-.43.2.084.422-1.457 1.14-1.154.49-1.427.22-1.542.444-1.446.05.108.253-.312.485.19.221-.379.33-.144.295-.222-.21-.498 1.459.75 1.71 1.35 1.354.5 1.225.197 1.403.618-.202-.203.905-.775.546-1.133 1.532-.148 1.044-.636.375-1.305.432.181-.445-1.33-1.265-1.675-.4-1.311-.972-1.552-.266-1.255.114.053.137-.333.275-.27-.164-.473.19-.309.206-.301.153.363 1.43-.481 1.017-1.469 1.498-.322 1.507-.302 1.337-.706h-.543l.857-1.166-.085-1.167-.319-1.167.216-1.166-.126-1.167.25.597-1.746-1.437-1.173-.069-1.398-.607-1.447-.723-1.428-.678.057.027-.163-.332-.449-.465-.062-.285-.176-.338.035-.24.052.022.603-1.38.644-1.363.212-1.544.767-1.312.638-1.365-.075-.075-.402-.402-.935-.935-1.413-1.413-.58-.58-.795-.795-.198-.473-1.09 1.293-1.279.846-1.41.53-1.726-.22-1.238.941.087.187-.553-.638-.15.228-.42-.353-.253.008-.345-.19.197.082-.393-1.308-1.56-1.799.396-.977-.827-1.49-.73-1.45v.316l-1.166.349-1.167-.66-1.166.15-1.167.035-1.167-.19m2.917 14.583.062.062 1.688 1.688 1.973 1.974 1.336 1.335 2.119 2.119 1.572 1.572-.196-.196-1.724 1.776-1.567 1.933-1.754 1.746-1.914 1.587-1.595 1.904.13.13-1.846-1.846-1.555-1.555-1.77-1.769-2.1-2.1-1.609-1.61-.125-.125 1.835-1.665 1.902-1.598 1.765-1.735 1.718-1.782 1.655-1.845" style="stroke:#fff;stroke-width:.5"/><text x="693.25" y="80.771" fill="#FFF" font-family="sans-serif" font-size="16" font-weight="bold" textLength="81.504">Consumer</text><path fill="none" d="m224.03 95.91.273.062-3.004 9.423-1.403 9.788-1.925 9.67-3.64 9.277-1.366 9.797-2.646 9.504-2.136 9.62-1.783 9.702-3.003 9.423-.575 9.977-3.731 9.257-1.63 9.736-1.375 9.795-2.866 9.454-1.992 9.654-2.323 9.578-1.92 9.67-2.113 9.626-2.504 9.537" style="stroke:#666;stroke-width:1"/><path fill="#666" d="m180.59 286.26.059.039.766-1.542 1.11-1.315.998-1.388.631-1.631 1.14-1.296-.006-.025-1.196-.38-1.167-.253-1.147-.164-1.216-.47-1.119-.042.183.025-.161 1.64.372 1.713.437 1.722.058 1.67z" style="stroke:#666;stroke-width:1"/><text x="217.86" y="139.288" fill="#666" font-family="sans-serif" font-size="12" font-weight="bold" textLength="35.148">Sends</text><text x="253.008" y="139.288" fill="#666" font-family="sans-serif" font-size="12" font-weight="bold" textLength="3.12"> </text><text x="256.128" y="139.288" fill="#666" font-family="sans-serif" font-size="12" font-weight="bold" textLength="52.74">message</text><text x="243.738" y="155.632" fill="#666" font-family="sans-serif" font-size="12" font-style="italic" textLength="39.252">[AMQP]</text><path fill="none" d="M239.85 307.35v.28l10.394-.832 10.395.81 10.394.275 10.394-1.484 10.394.847 10.395-.465 10.394.569" style="stroke:#666;stroke-width:1"/><path fill="#666" d="m320.61 307.35.025.066-1.673-.795-1.53-.41-1.575-.536-1.73-.948-1.517-.377h-.026l-.116 1.2.014 1.2.105 1.2-.207 1.2.23 1.2.065.173 1.461-.97 1.65-.465 1.675-.403 1.539-.762z" style="stroke:#666;stroke-width:1"/><text x="257.78" y="300.178" fill="#666" font-family="sans-serif" font-size="12" font-weight="bold" textLength="45.876">binding</text><path fill="none" d="m682.78 58.31.015.092-2.694.166-2.604.707-2.633.53-2.73-.047-2.597.753-.006-.034-2.887.376-2.856.548-2.834.667-2.91.256-2.803.831.05.241-3.148.11-3.003.813-2.985.9-3.088.399-3.033.662.006.03-3.204.685-3.174.82-3.189.754-3.16.879-3.253.475.073.289-3.318.843-3.365.656-3.297.93-3.293.942-3.395.537-.087-.31-3.247 1.558-3.532.54-3.315 1.313-3.538.517-3.356 1.17-.009-.029-3.374 1.427-3.587.748-3.46 1.149-3.452 1.182-3.526.94.06.175-3.58 1.04-3.478 1.339-3.645.855-3.395 1.577-3.561 1.096.087.228-3.546 1.314-3.502 1.427-3.704.902-3.556 1.287-3.425 1.627-.11-.253-3.41 1.734-3.534 1.449-3.356 1.863-3.66 1.155-3.479 1.577-.066-.138-3.352 1.89-3.633 1.3-3.433 1.72-3.237 2.128-3.586 1.4.092.17-3.322 1.94-3.607 1.41-3.25 2.074-3.327 1.928-3.509 1.592-.109-.18-3.191 2.137-3.228 2.077-3.157 2.192-3.43 1.744-3.278 1.994.117.17-3.4 1.798-3.176 2.126-2.846 2.602-3.452 1.724-2.963 2.432.14.178-3.063 2.25-3.112 2.189-3.004 2.325-2.757 2.639-3.107 2.195-.09-.098-2.52 2.84-3.132 2.171-2.438 2.932-2.828 2.503L425 167.46l.082.072-2.502 2.709-2.209 2.967-2.473 2.734-2.584 2.636-2.492 2.718.099.067-2.174 2.903-1.716 3.214-2.234 2.864-2.02 3.007-2.091 2.96-.24-.126-1.577 3.181-1.29 3.334-1.696 3.118-1.843 3.041-1.64 3.149-.133-.056-1.283 3.194-1.517 3.096-.875 3.365-1.192 3.231-1.63 3.05.223.073-.962 3.137-1.384 2.996-.939 3.144-1.233 3.047-.87 3.167.123.032-.795 2.946-.647 2.985-1.115 2.862-.738 2.961-.72 2.966.192.04-.508 2.7-1.033 2.59-.424 2.716-.414 2.72-.627 2.674-.268-.045.037 2.397-.427 2.319-.543 2.3-.28 2.344-.447 2.316" style="stroke:#666;stroke-width:1"/><path fill="#666" d="m372.81 291.19.061.034.644-1.597 1.003-1.398.886-1.463.501-1.675 1.034-1.381-.004-.026-1.204-.289-1.185-.16-1.172-.07-1.218-.38-1.153.054.18.04-.024 1.586.502 1.7.567 1.715.193 1.634z" style="stroke:#666;stroke-width:1"/><text x="474.89" y="147.288" fill="#666" font-family="sans-serif" font-size="12" font-weight="bold" textLength="61.644">Consumes</text><text x="536.534" y="147.288" fill="#666" font-family="sans-serif" font-size="12" font-weight="bold" textLength="3.12"> </text><text x="539.654" y="147.288" fill="#666" font-family="sans-serif" font-size="12" font-weight="bold" textLength="52.74">message</text><path fill="none" d="m785.08 54.91.018.28 10.14-.186 10.245 1.453 10.211.92 10.1-.836 10.253 1.594-.002-.034 5.99.27 6.002.446 6.01.566 5.982.149 6.022.732.02.246 6.42-.027 6.474.69 6.482.777 6.443.27 6.463.535.003.03 6.81.53 6.82.665 6.815.6 6.826.727 6.79.313.028.297 7.058.654 7.04.463 7.067.743 7.068.756 7.03.34-.033-.32 7.258 1.35 7.152.299 7.233 1.097 7.15.276 7.218.949-.003-.03 7.266 1.17 7.187.464 7.234.88 7.238.916 7.21.663.023.184 7.126.713 7.165 1.026 7.102.518 7.197 1.276 7.134.772.033.242 3.507.435 3.522.556 3.447-.001 3.502.407 3.552.769-.04-.273 3.489.75 3.444.444 3.51.89 3.398.127 3.464.58-.023-.15 3.419.777 3.319.133 3.39.591 3.46 1.04 3.336.24.032.192 3.316.68 3.217.086 3.34.83 3.314.668 3.251.29-.037-.207 3.224.737 3.212.67 3.236.802 3.143.285 3.194.574.04.202 2.995.152 3.07.542 3.182 1.11 2.978.064 3.142.908.046.222 2.928.488 2.911.413 2.947.582 3.03.973 2.912.42-.03-.13 2.904 1.03 2.701.147 2.931 1.151 2.802.586 2.767.434.026.105 2.64.583 2.736.96 2.65.62 2.613.476 2.644.596.031.114 2.448.522 2.596 1.056 2.428.452 2.497.7 2.475.62-.08-.26 2.341.805 2.438 1.115 2.302.675 2.253.517 2.32.736-.047-.135 2.136.786 2.053.547 2.283 1.205 2.17.88 2.012.433.093.214 3.638 1.633 3.462 1.224 3.648 1.655 3.525 1.37 3.677 1.722.062.11 2.909 1.615 2.983 1.747 2.748 1.326 2.938 1.665 2.946 1.681.123.155 2.12 1.698 1.788 1.28 2.174 1.766 2.182 1.775 2.044 1.603-.217-.163 1.928 2.37 1.55 2.089 1.457 2.017 1.671 2.178 1.534 2.075.293.138.993 2.806 1.665 3.121 1.4 2.997 1.344 2.97 1.365 2.981.058.022 1.395 3.647 1.1 3.532 1.498 3.686 1.38 3.64 1.597 3.725.027.01 1.225 3.477 1.245 3.484 1.024 3.408 1.309 3.506 1.242 3.484-.05-.016 1.31 3.408.95 3.297.626 3.198 1.19 3.37 1.045 3.327-.249-.063 1.177 3.273.943 3.214.777 3.172.382 3.072.992 3.226.203.039.059 2.96.997 3.139.368 3.019.759 3.093.543 3.053.106.013.46 2.973-.168 2.898.885 3.026.227 2.945.28 2.952.157.007.295 2.89-.209 2.867.196 2.885.138 2.883.026 2.878.087.004-.213 2.818.19 2.835-.712 2.796.396 2.845-.377 2.81-.274-.037-.345 2.786-.126 2.816-.386 2.78-.61 2.75-.165 2.81.18.042-.779 2.728-.378 2.822-.672 2.754-1.129 2.646-.451 2.805-.168-.056-.807 2.795-.715 2.826-.9 2.764-.963 2.743-1.047 2.715-.14-.06-.803 2.947-1.205 2.775-1.48 2.654-1.281 2.74-1.106 2.818-.157-.084-1.422 2.85-1.358 2.885-1.576 2.769-1.632 2.738-1.332 2.899.184.115-2.153 2.644-1.435 3.095-1.825 2.85-1.818 2.854-1.937 2.78.25.179-2.446 2.7-2.128 2.93-1.811 3.154-2.51 2.655-1.893 3.097-.08-.065-2.307 3.135-2.444 3.025-2.576 2.92-2.317 3.125-2.413 3.05.246.221-2.297 2.488-2.676 2.146-2.042 2.717-2.46 2.34-2.096 2.67-.008-.01-2.29 2.422-2.348 2.36-2.724 1.973-2.058 2.66-2.512 2.19.003.004-2.645 1.942-2.457 2.162-2.25 2.402-2.504 2.107-2.553 2.048-.005-.005-2.723 1.726-2.185 2.425-2.808 1.616-2.604 1.88-2.402 2.144-.017-.025-2.413 2.032-2.574 1.8-2.727 1.58-2.627 1.725-2.541 1.847.04.063-2.58 1.644-2.75 1.376-2.366 1.983-2.55 1.692-2.718 1.427-.049-.083-2.608 1.41-2.313 1.918-2.707 1.242-2.565 1.484-2.56 1.493.063.117-2.707.99-2.257 1.819-2.622 1.146-2.362 1.627-2.648 1.098" style="stroke:#666;stroke-width:1"/><path fill="#666" d="m1175.36 487.6.009.07 1.67-.42 1.72-.01 1.704-.144 1.65-.58 1.725.023-.023-.012-.66-1.116-.545-1.056-.465-1.014-.742-1.16-.353-.955.138.123-1.433 1.012-1.03 1.37-.982 1.415-1.266 1.16z" style="stroke:#666;stroke-width:1"/><path fill="none" d="m1355.488 271.85.053.077-.288-.138.024.312-.078.165-.411-.317.05.351-.063-.027-3.225 6.687-2.905 6.825-2.682 6.921-3.45 6.59-2.375 7.054.243.038-.55.108.16.22.247.234-.258.154.008.196h.06l-.088.81.187.81.054.81.308.81-.52.81.21.21.093.094-.044-.044.156.156.165.165-.13-.131v-.641l6.81 1.244 6.81-.867 6.81.738 6.81-.914 6.81.44-.022-.022.344.165-.158-.338.138-.042.164-.017-.017-.196h.37l-.373-.81.259-.81-.765-.81.762-.81-.253-.81.24.038-.075-.197.044-.179-.51-.265-.105-.202.256-.145-.507-.219-2.48-6.612-3.053-6.858-2.224-6.5-3.638-7.113-2.798-6.748-.087-.125.015.118-.357-.417-.092-.036.165.337-.294-.327v.387l-.81.266-.81-.939-.81.57-.81.24-.81-.524m-.35 15v-.42l1 .335 1 .197 1 .467 1-.583 1 .004h.411l-.903 2-.11 2 1.05 2-1.085 2 .637 2v.452l-1-.268-1-.422-1-.077-1 .723-1-.408h-.266l.792-2-1.017-2 1.04-2-.118-2-.43-2m0 15v.218l1-.176 1 .604 1-.1 1-.396 1-.15h.237l-.354 1 .753 1-.5 1 .017 1-.154 1v-.54l-1 .18-1 .832-1-.09-1-.42-1 .038h-.286l.092-1-.416-1 .979-1 .289-1-.658-1" style="stroke:red;stroke-width:1"/><text x="1381.038" y="323.334" fill="#666" font-family="sans-serif" font-size="12" textLength="3.12"> </text><text x="1384.158" y="323.334" fill="#666" font-family="sans-serif" font-size="12" font-weight="bold" textLength="3.12"> </text><text x="1338.51" y="339.678" fill="#666" font-family="sans-serif" font-size="12" font-weight="bold" textLength="15.312">on</text><text x="1353.822" y="339.678" fill="#666" font-family="sans-serif" font-size="12" font-weight="bold" textLength="3.12"> </text><text x="1356.942" y="339.678" fill="#666" font-family="sans-serif" font-size="12" font-weight="bold" textLength="30.864">error</text><path fill="none" d="M963.96 508.92v.28l10.509-.832 10.508.81 10.509.275 10.508-1.484 10.509.847 10.508-.465 10.509.569" style="stroke:#666;stroke-width:1"/><path fill="#666" d="m955.96 508.92.025.066 1.526.405 1.672.79 1.624.664 1.47.252 1.683.823h-.026l-.116-1.2.014-1.2.105-1.2-.207-1.2.23-1.2.065.173-1.739.23-1.55.735-1.525.797-1.661.438z" style="stroke:#666;stroke-width:1"/><text x="974.22" y="501.748" fill="#666" font-family="sans-serif" font-size="12" font-weight="bold" textLength="45.876">binding</text><path fill="none" d="M641.67 508.92v.28l10.15-.832 10.151.81 10.151.275 10.15-1.484 10.151.847 10.151-.465 10.15.058 10.151.42 10.151-.83 10.15 1.66 10.151-1.58 10.151.577 10.15.84 10.151-.69 10.151.114" style="stroke:#666;stroke-width:1"/><path fill="#666" d="m633.67 508.92.025.066 1.526.405 1.672.79 1.624.664 1.47.252 1.683.823h-.026l-.116-1.2.014-1.2.105-1.2-.208-1.2.231-1.2.065.173-1.739.23-1.55.735-1.525.797-1.661.438z" style="stroke:#666;stroke-width:1"/><text x="651.8" y="485.748" fill="#666" font-family="sans-serif" font-size="12" font-weight="bold" textLength="28.536">send</text><text x="680.336" y="485.748" fill="#666" font-family="sans-serif" font-size="12" font-weight="bold" textLength="3.12"> </text><text x="683.456" y="485.748" fill="#666" font-family="sans-serif" font-size="12" font-weight="bold" textLength="27.024">with</text><text x="710.48" y="485.748" fill="#666" font-family="sans-serif" font-size="12" font-weight="bold" textLength="3.12"> </text><text x="713.6" y="485.748" fill="#666" font-family="sans-serif" font-size="12" font-weight="bold" textLength="62.604">increasing</text><text x="692.39" y="502.092" fill="#666" font-family="sans-serif" font-size="12" font-weight="bold" textLength="43.224">x-delay</text><path fill="none" d="M875 524.86h.28l-.832 10.336.81 10.337.275 10.336-1.484 10.336.847 10.336-.465 10.337.058 10.336.511 10.336" style="stroke:#666;stroke-width:1"/><path fill="#666" d="m875 615.55.066.025.405-1.673.79-1.53.664-1.575.252-1.73.823-1.517v-.026l-1.2-.116-1.2.014-1.2.105-1.2-.208-1.2.231.173.065.23 1.461.735 1.65.797 1.675.438 1.539z" style="stroke:#666;stroke-width:1"/><text x="876" y="581.818" fill="#666" font-family="sans-serif" font-size="12" font-weight="bold" textLength="15.312">on</text><text x="891.312" y="581.818" fill="#666" font-family="sans-serif" font-size="12" font-weight="bold" textLength="3.12"> </text><text x="894.432" y="581.818" fill="#666" font-family="sans-serif" font-size="12" font-weight="bold" textLength="20.064">too</text><text x="914.496" y="581.818" fill="#666" font-family="sans-serif" font-size="12" font-weight="bold" textLength="3.12"> </text><text x="917.616" y="581.818" fill="#666" font-family="sans-serif" font-size="12" font-weight="bold" textLength="33.744">many</text><text x="951.361" y="581.818" fill="#666" font-family="sans-serif" font-size="12" font-weight="bold" textLength="3.12"> </text><text x="954.481" y="581.818" fill="#666" font-family="sans-serif" font-size="12" font-weight="bold" textLength="39.912">retries</text><path fill="none" d="M700.2 636.88v.28l9.375-.832 9.375.81 9.375.275 9.375-1.484 9.375.847 9.375.104" style="stroke:#666;stroke-width:1"/><path fill="#666" d="m692.2 636.88.025.066 1.526.405 1.672.79 1.624.664 1.47.252 1.683.823h-.026l-.116-1.2.014-1.2.105-1.2-.207-1.2.23-1.2.065.173-1.739.23-1.55.735-1.525.797-1.661.438z" style="stroke:#666;stroke-width:1"/><text x="710.22" y="629.708" fill="#666" font-family="sans-serif" font-size="12" font-weight="bold" textLength="28.536">send</text><path fill="none" d="M266.14 508.92v.28l9.793-.832 9.793.81 9.792.275 9.793-1.484 9.793.847 9.793-.465 9.792.058 9.793.42 9.793-.83 9.793 1.66 9.793-1.58 9.792.577 9.793.84 9.793-.69 9.793.205 9.792-.134 9.793.281 9.793-.238" style="stroke:#666;stroke-width:1"/><path fill="#666" d="m258.14 508.92.025.066 1.526.405 1.672.79 1.624.664 1.47.252 1.683.823h-.026l-.116-1.2.014-1.2.105-1.2-.208-1.2.231-1.2.065.173-1.739.23-1.55.735-1.525.797-1.661.438z" style="stroke:#666;stroke-width:1"/><path fill="none" d="m297.22 449.92.036.086-2.932.919-2.721 1.424-2.79 1.26-3.015.718-2.703 1.468-.032-.013-1.318 2.765-1.157 2.832-1.046 2.88-1.43 2.718-.892 2.943.227.094.69 2.623 1.352 2.9 1.433 2.932.963 2.736 1.21 2.84.012.028 2.807 1.134 2.862 1.261 2.835 1.2 2.884 1.317 2.725.935.114.275 2.827-1.171 2.752-1.35 2.861-1.089 2.866-1.077 2.705-1.463-.296-.123 1.75-2.586.774-2.992 1.516-2.683.753-3 1.378-2.741-.028-.012-.843-2.686-1.499-2.96-1.112-2.799-1.079-2.785-1.314-2.883.071.17-2.897-1.347-2.775-1.055-2.972-1.528-2.678-.823-2.874-1.292m0 5 .093.225 2.105.835 2.151.947 1.936.427 2.094.808 2.233 1.146-.255-.106 1.109 2.218.82 2.1 1.239 2.27.526 1.978.949 2.152-.14-.058-.644 2.22-1.245 1.97-.817 2.147-.398 2.321-1.144 2.013.075.178-2.072 1-2.302.444-2.014 1.141-2.076.989-2.223.635-.08-.194-2.059-.723-2.085-.786-2.033-.662-2.234-1.147-2.121-.875.19.078-1.296-2.295-.928-2.143-.392-1.923-1.379-2.33-.583-2 .209.086.753-2.173.683-2.204.842-2.137 1.211-1.984.69-2.2-.051-.123 2.273-.512 1.929-1.348 2.32-.396 2.1-.933 2.041-1.076m-2.5 5h.218l-.176 2.22.604 2.22-.1 2.22-.396 2.22-.15 2.22.15.185-.063-.145.635.714-.155-.257.17.142.063.011-.382-.382.627.627 1.089 1.089.436.436.203.203.527.527-.213-.191.408.441.03.103 1.07 1.033.555.572-.15-.058.33.33.827-.613.197-1.243.86-.58.422-1.018.964-.476.168.188-.402-.365-.199-.137-.843-.858-.324-.277-.3-.251.279.279-.262-.262-1.02-1.02-.139-.139-.124-.124-.434-.434h-.543l.857-1.81-.085-1.81-.319-1.81.216-1.81-.126-1.81v.648l-1-.926-1 .558-1-.026-1-.151-1-.103" style="stroke:purple;stroke-width:1"/><text x="318.22" y="501.404" fill="#666" font-family="sans-serif" font-size="12" textLength="3.12"> </text><text x="321.34" y="501.404" fill="#666" font-family="sans-serif" font-size="12" font-weight="bold" textLength="26.388">wait</text><text x="347.728" y="501.404" fill="#666" font-family="sans-serif" font-size="12" font-weight="bold" textLength="3.12"> </text><text x="350.848" y="501.404" fill="#666" font-family="sans-serif" font-size="12" font-weight="bold" textLength="22.728">and</text><text x="373.576" y="501.404" fill="#666" font-family="sans-serif" font-size="12" font-weight="bold" textLength="3.12"> </text><text x="376.696" y="501.404" fill="#666" font-family="sans-serif" font-size="12" font-weight="bold" textLength="48.084">forward</text><path fill="none" d="M176 492.69h.28l-.832-9.756.81-9.757.275-9.756-1.484-9.756.847-9.756-.465-9.757.058-9.756.42-9.756-.83-9.756 1.66-9.757-1.58-9.756.577-9.756.84-9.756-.69-9.756.205-9.757-.091-9.756" style="stroke:#666;stroke-width:1"/><path fill="#666" d="m176 328.59.066.025-.795 1.526-.41 1.672-.536 1.624-.948 1.47-.377 1.683v-.026l1.2-.116 1.2.014 1.2.105 1.2-.207 1.2.23.173.065-.97-1.739-.465-1.55-.403-1.525-.762-1.661z" style="stroke:#666;stroke-width:1"/><text x="212.268" y="387.678" fill="#666" font-family="sans-serif" font-size="12" font-weight="bold" textLength="50.088">requeue</text><text x="262.357" y="387.678" fill="#666" font-family="sans-serif" font-size="12" font-weight="bold" textLength="3.12"> </text><text x="265.477" y="387.678" fill="#666" font-family="sans-serif" font-size="12" font-weight="bold" textLength="12.636">to</text><text x="177" y="404.022" fill="#666" font-family="sans-serif" font-size="12" font-weight="bold" textLength="136.381">
                x-first-death-exchange</text></svg>