<?xml version="1.0" encoding="utf-8"?>
<!DOCTYPE svg PUBLIC "-//W3C//DTD SVG 1.1//EN" "http://www.w3.org/Graphics/SVG/1.1/DTD/svg11.dtd">
<svg version="1.1" xmlns="http://www.w3.org/2000/svg" xmlns:xlink="http://www.w3.org/1999/xlink" x="0px" y="0px" viewBox="0 0 1000 1000" enable-background="new 0 0 1000 1000" xml:space="preserve">
<g fill="#ff8700"><g transform="translate(0.000000,511.000000) scale(0.100000,-0.100000)"><path d="M3649.1,4981.3c-436.8-101-843.5-313.9-1152-597.8c-109.2-103.8-199.3-196.6-199.3-210.2c0-10.9,188.4-27.3,417.7-35.5c663.4-27.3,1138.4-169.3,1392.2-415c109.2-106.5,245.7-354.9,308.5-556.9c49.1-163.8,49.1-485.9,0-625.1c-21.8-62.8-950-1384.1-2061.1-2937.4L332.2-3224.8l191.1-278.5c101-155.6,267.5-382.2,365.8-505c229.3-281.2,756.2-808,783.5-780.7c10.9,10.9,469.5,802.6,1021,1755.3c2022.8,3497,2555.2,4395.1,2686.2,4542.5c300.3,330.3,879,300.3,1681.6-92.8c390.4-188.4,379.5-180.2,327.6-324.9c-21.8-68.2-32.8-131-21.8-142c13.7-8.2,166.5-125.6,343.9-256.6c368.6-267.5,384.9-270.3,570.6-73.7c122.8,131,535,690.7,600.6,819c103.7,204.7,84.6,240.2-267.5,496.8c-409.5,297.5-379.5,283.9-480.5,234.8l-84.6-43.7l-207.5,185.6c-865.4,772.5-1070.1,960.9-1315.8,1223c-576,611.5-890,917.3-1070.1,1037.4c-223.9,150.1-576,316.7-797.1,379.5C4432.5,5014,3862,5030.4,3649.1,4981.3z"/><path d="M8317.2-1166.5c-87.4-21.8-215.7-71-281.2-109.2c-297.6-174.7-155.6-412.2,313.9-518.7c221.1-49.1,226.6-54.6,226.6-338.5c0-406.8,103.7-1643.4,155.6-1848.1c21.8-101,57.3-73.7,87.4,71c32.7,152.9,101,925.4,125.6,1408.6c8.2,180.2,21.8,404,30,496.8l13.7,166.5l196.5,43.7c234.8,54.6,398.6,139.2,455.9,243c35.5,65.5,35.5,81.9,0,147.4c-95.5,172-453.1,283.9-892.7,278.4C8601.1-1125.5,8407.2-1144.6,8317.2-1166.5z"/></g></g>
</svg>
