<svg xmlns="http://www.w3.org/2000/svg" width="100" height="100" viewBox="0 0 26.458 26.458"><circle cx="13.229" cy="13.229" r="13" style="fill:#fff"/><path fill="#00bcf2" d="M5.814 5.55c-.587 0-1.06.472-1.06 1.058v10.064c0 .587.473 1.06 1.06 1.06h5.297v2.118H8.99v.53H7.934v.53h10.593v-.53h-1.06v-.53h-2.118V17.73h5.296c.587 0 1.06-.472 1.06-1.059V6.608c0-.586-.473-1.059-1.06-1.059zm0 1.058h14.83v10.064H5.814Zm7.68 2.003-2.88 1.457 2.88 1.721 2.946-1.721zm-2.88 1.986v3.178l2.648 1.59v-3.179zm5.826.017-2.648 1.589v3.178l2.648-1.59z"/></svg>